<svg xmlns="http://www.w3.org/2000/svg" width="508.458" height="412.444" viewBox="0 0 508.458 412.444"><defs><style>.a{fill:#f65f4d;}.b{fill:#e1eff9;}.c{fill:#fff;}.d{fill:#004061;}</style></defs><g transform="translate(570.546 -19270.143)"><g transform="translate(-456.472 19369.258)"><path class="a" d="M4188.8,1616.031l189.56-75.182a74.261,74.261,0,0,0,46.876-69.974l-.155-12.069-199.159,79a58.8,58.8,0,0,0-37.122,54.656Z" transform="translate(-4188.799 -1458.805)"/></g><g transform="translate(-570.546 19434.428)"><path class="b" d="M4133.3,1559.364l83.013-32.924a32.52,32.52,0,0,0,20.527-30.643l-.067-5.287-87.215,34.6a25.751,25.751,0,0,0-16.257,23.936Z" transform="translate(-4133.301 -1490.511)"/></g><g transform="translate(-480.968 19270.143)"><path class="c" d="M4283.125,1522.338a12.9,12.9,0,0,0-9.515-4.306,15.252,15.252,0,0,0-9.235,3.683c-8.384,6.771-11.607,20.514-8.8,32.045l27.433,1.3a9.718,9.718,0,0,0,.8-1.758q.4-.913.764-1.842.746-1.88,1.376-3.823c.813-2.514,1.4-5.094,2.032-7.677a20.055,20.055,0,0,0,.846-5.122,15.373,15.373,0,0,0-1.5-5.515A23.921,23.921,0,0,0,4283.125,1522.338Z" transform="translate(-4094.871 -1297.177)"/><path class="b" d="M4312.489,1544.052c-3.018-1.428-6.349-2.893-9.588-2.076-3.408.86-5.683,3.98-7.659,6.886-2.271,3.336-4.65,7.319-3.405,11.159,1.136,3.512,4.846,5.4,8.213,6.918,4.5,2.031,9.056,4.08,13.909,4.989s10.111.585,14.372-1.909a18.434,18.434,0,0,0,5.7-5.427c1.356-1.942,3.043-4.547,3.389-6.937a2.127,2.127,0,0,0-1.053-2.261,38.353,38.353,0,0,0-4.468-2.147l-9.154-4.337Z" transform="translate(-4055.912 -1272.152)"/><g transform="translate(237.843 278.209)"><path class="d" d="M4364.074,1548.188c3.378-1.03,6.776-2.279,10.311-2.253s7.325,1.663,8.738,4.9c-6.523,14.333-21.414,22.622-35.359,29.939l-20.341,10.676c-1.569.824-3.259,1.673-5.023,1.48-3.247-.354-5.049-3.926-5.8-7.106s-1.228-6.783-3.785-8.818c-1.561-1.241-3.609-1.634-5.464-2.37s-3.736-2.115-3.941-4.1c-.213-2.054,1.423-3.784,2.934-5.194q5.407-5.051,10.815-10.1c2.149-2.008,4.372-4.083,7.466-4.2,3.281-.123,6.644.67,9.927.825a88.078,88.078,0,0,0,14.036-.472A87.1,87.1,0,0,0,4364.074,1548.188Z" transform="translate(-4281.2 -1545.935)"/><path class="d" d="M4328.393,1565.947c-4.023.106-6.912,1.606-9.933,4.2-4.577,3.922-8.622,8.413-13.2,12.345a.492.492,0,0,0,.627.758c4.087-2.89,8.345-5.43,12.57-8.1,3.193-2.021,6.369-5.023,10.086-5.948C4330.224,1568.782,4330.371,1565.9,4328.393,1565.947Z" transform="translate(-4279.416 -1524.813)"/><path class="d" d="M4323.7,1570.419a3.081,3.081,0,0,0-1.879-.487,8.363,8.363,0,0,0,.634-7.64c-.623-1.542-2.907-.714-2.692.84.879,6.362-5.851,10.053-9.925,13.6-3.908,3.4-6.34,7.57-11.46,9.424-.134.05-.038.24.093.2,6.268-1.994,12.193-6.668,17.508-10.465a23.981,23.981,0,0,0,4.49-4.037c.975-.415,2.012-.567,2.764.426.611.812.609,1.86,1.542,2.4a.558.558,0,0,0,.831-.265C4326.2,1573.04,4324.834,1571.147,4323.7,1570.419Z" transform="translate(-4286.56 -1529.538)"/><path class="d" d="M4310.018,1573.95c-6.272,3.276-12.3,6.8-17.15,12.01-.657.709-.048,2.078.982,1.564,6.3-3.151,11.7-7.533,17.266-11.829A1.044,1.044,0,0,0,4310.018,1573.95Z" transform="translate(-4292.594 -1516.486)"/><path class="d" d="M4305.528,1578.249a7.318,7.318,0,0,0-2.93,1.975,7.405,7.405,0,0,0-1.111,1.347,4.741,4.741,0,0,1-1.437,1.721c-.427.238-.11.935.322.7a11.218,11.218,0,0,0,2.962-1.895c.905-.96,1.521-2.006,2.787-2.551C4306.989,1579.17,4306.374,1577.983,4305.528,1578.249Z" transform="translate(-4284.938 -1511.87)"/></g><path class="d" d="M4303.661,1534.63a186.994,186.994,0,0,0-16.918-8.82c-2.265-1.038-4.674-2.054-7.156-1.83-4.67.424-7.761,4.89-10.174,8.913a38.739,38.739,0,0,0-4.54,9.4c-.928,3.365-.872,7.155.937,10.141,1.478,2.438,3.934,4.087,6.314,5.657,11.933,7.87,23.892,15.757,36.589,22.32,3.248,1.678,7.255,3.254,10.381,1.361,2.274-1.377,3.223-4.119,4.423-6.491a24.31,24.31,0,0,1,7.43-8.666c1.514-1.1,3.438-1.821,4.69-3.234,1.361-1.536.684-2.941-.564-4.267a121.05,121.05,0,0,0-9.236-8.8c-3.233-2.775-6.6-5.392-10.075-7.862s-7.054-4.8-10.71-6.993C4304.586,1535.179,4304.125,1534.9,4303.661,1534.63Z" transform="translate(-4084.637 -1290.93)"/><path class="b" d="M4258.907,1500.376c-3.869-1.944-7.868-3.794-12.152-4.444s-8.941.037-12.329,2.74c-4.806,3.837-5.953,10.563-6.757,16.661a96.393,96.393,0,0,0-1.229,16.8,49.075,49.075,0,0,0,20.25,37.27,58.631,58.631,0,0,0,21.785,9.224,40.894,40.894,0,0,0,12.935.979,6.135,6.135,0,0,1-3.6-4.615,15.9,15.9,0,0,1,.223-6.07c1.452-8.158,4.165-16.3,9.417-22.711a28.685,28.685,0,0,1,12.434-8.9,23.751,23.751,0,0,1,3.685-.982,24.928,24.928,0,0,0,3.736-.483c.4-.14,1.028-.444.981-.958s-.944-1.066-1.3-1.391q-1.6-1.458-3.222-2.886-6.52-5.719-13.494-10.9t-14.381-9.8q-7.361-4.59-15.08-8.569Q4259.861,1500.856,4258.907,1500.376Z" transform="translate(-4124.625 -1320.742)"/><path class="b" d="M4267.863,1543.606c-7.28-2.37-13.958-6.249-20.792-9.7-2.161-1.091-4.917-2.1-6.837-.625a6.622,6.622,0,0,0-1.625,2.214l-11.815,21.976a25.844,25.844,0,0,1,33.313,11.667,15.078,15.078,0,0,0,1.984,3.289,3.689,3.689,0,0,0,3.425,1.322,5.265,5.265,0,0,0,2.39-1.677c2.634-2.746,5.259-5.5,7.839-8.294s5.15-5.646,7.676-8.514c1.745-1.979,4.249-4.131,3.166-7.06a3.906,3.906,0,0,0-2.111-2.247c-1.344-.571-2.9-.222-4.318-.228a39.754,39.754,0,0,1-10.969-1.708C4268.745,1543.888,4268.3,1543.75,4267.863,1543.606Z" transform="translate(-4124.204 -1281.865)"/><path class="c" d="M4226.68,1557.08a46.6,46.6,0,0,1,23.559,9.668c1.619,1.279,3.264,2.72,5.3,3.057a7.369,7.369,0,0,0,6.279-2.475,21.831,21.831,0,0,0,3.649-5.965,21.565,21.565,0,0,0-26.134-16.324,25.771,25.771,0,0,0-5.978,2.339,6.488,6.488,0,0,0-2.984,2.3C4228.953,1552.01,4227.89,1554.63,4226.68,1557.08Z" transform="translate(-4124.32 -1269.286)"/><path class="d" d="M4268.072,1559.451c2.828,1.632,5.923,4.253,5.308,7.46a8.372,8.372,0,0,1-2.093,3.609l-18.848,22.678c-3.206,3.854-6.415,7.716-9.967,11.252-6.583,6.554-14.267,11.918-20.907,18.417l-13.21-18.2a9.554,9.554,0,0,1-2.189-4.544,8.226,8.226,0,0,1,1.479-4.782c5.619-9.4,16.031-14.684,23.974-22.227a53.573,53.573,0,0,0,6.77-7.823,85.54,85.54,0,0,0,5.125-8.826c1.012-1.864,2.34-3.85,4.562-4.308,2.835-.586,6.06.966,8.639,1.934a76.375,76.375,0,0,1,10.146,4.679C4267.266,1558.99,4267.671,1559.219,4268.072,1559.451Z" transform="translate(-4145.993 -1261.3)"/><path class="b" d="M4230.461,1592.892c.813,1.219,1.664,2.682,1.176,4.063a4.75,4.75,0,0,1-1.826,2.033l-28.379,21.311c-1.417-5.321-8.3-8.129-8.888-13.6-.364-3.39,1.882-6.453,4.069-9.065q6.508-7.782,13.763-14.9,1.789-1.756,3.623-3.47.935-.876,1.882-1.737a5.113,5.113,0,0,1,1.811-1.355c1.343-.38,2.292,1.057,2.923,2q1.526,2.275,3.049,4.557Z" transform="translate(-4160.392 -1235.878)"/><path class="d" d="M4214.138,1603.293c1.045.9,2.319,1.933,2.192,3.305a3.917,3.917,0,0,1-1.311,2.173l-20.52,21.364c-1.5,1.565-3.126,3.2-5.233,3.712a8.094,8.094,0,0,1-5.852-1.159,13.163,13.163,0,0,1-2.112-21.218c1.741-1.548,3.977-2.736,4.912-4.869a18.644,18.644,0,0,0,.813-4.132c.772-4.178,3.949-7.6,7.645-9.693a30.019,30.019,0,0,1,6.292-2.575,7.121,7.121,0,0,1,4.515-.259c3.085,1.159,3.281,5.352,4.514,7.905A16.933,16.933,0,0,0,4214.138,1603.293Z" transform="translate(-4176.882 -1221.57)"/><path class="d" d="M4315.025,1571.873c3.454,2.694,6.651,5.8,10.542,7.8s8.786,2.764,12.584.579c4.74-2.73,6.129-8.805,7.062-14.2l12.224-70.72c1.214-7.019,2.763-14.645,8.218-19.227,8.19-6.873,20.373-3.515,31.063-3.673a44.061,44.061,0,0,0,31.87-14.61c2.5-2.813,4.682-6.088,5.291-9.8s-.686-7.922-3.871-9.924c-5.337-3.357-12.029.709-17.476,3.886a65.2,65.2,0,0,1-58.511,3.114c-3.84-1.72-7.562-3.837-11.682-4.692s-8.874-.185-11.683,2.944c-2.221,2.47-2.824,5.934-3.915,9.071a28.714,28.714,0,0,1-26.449,18.762c-4.65-.009-9.453-1.285-12.923-4.382s-5.311-8.22-3.761-12.606a55.463,55.463,0,0,0-29.2,16.055c-4.637,4.876-8.371,10.59-13.346,15.12a40.036,40.036,0,0,1-28.385,10.278c-4.174-.184-8.372-1.028-12.5-.366s-8.338,3.358-9.048,7.475c-.574,3.351,1.373,6.753,4.108,8.773s6.131,2.906,9.468,3.55a87.663,87.663,0,0,0,57.7-8.857c.139-.074,3.773,8.505,4.071,9.3a97.654,97.654,0,0,1,6.146,29.981,95.7,95.7,0,0,1-.081,10.215c-.061.991-.452,2.691.541,3.385.963.674,3.067.133,4.186.119a60.678,60.678,0,0,1,18.839,2.779,60.04,60.04,0,0,1,17,8.439Q4314.087,1571.139,4315.025,1571.873Z" transform="translate(-4161.945 -1382.864)"/><path class="c" d="M4249.891,1483.565a30.37,30.37,0,0,0,32.064-26.717c.695-5.831-.31-11.72-1.491-17.471-1.213-5.9-2.865-12.184-7.472-16.064-4.868-4.1-12.265-4.413-17.957-1.572s-9.716,8.411-11.657,14.47c-.96,3.007-1.589,6.372-3.955,8.461a26.1,26.1,0,0,0-2.8,2.261c-1.908,2.213-1.229,5.689.286,8.191,1.469,2.419,3.586,4.411,4.814,6.985a8.439,8.439,0,0,1-.068,7.294c-.747,1.476-1.947,2.657-2.284,4.327a7.516,7.516,0,0,0,2.282,6.994C4243.892,1482.71,4246.989,1483.381,4249.891,1483.565Z" transform="translate(-4115.055 -1400.774)"/><path class="d" d="M4283.3,1424.977c-.426-3.373-.937-6.948-3.116-9.558-2.35-2.814-6.163-3.916-9.791-4.422a45.721,45.721,0,0,0-36.01,10.805c-2.358,2.074-4.672,5.046-3.775,8.056.66,2.212,2.867,3.617,3.844,5.708,1.845,3.934-1.192,8.7.089,12.857.677,2.2,2.463,3.858,4.174,5.4l6.356,5.739a3.658,3.658,0,0,0,2.124,1.18,2.578,2.578,0,0,0,2.365-2.345,9.739,9.739,0,0,0-.479-3.6c-1.153-4.882-.443-10.425,2.873-14.188,2-2.267,4.739-3.716,7.419-5.114l9.776-5.1c1.658-.866,3.526-1.757,5.326-1.241,3.341.956,3.765,5.276,5.914,7.494a2.473,2.473,0,0,0,3.363.3c1.357-1.09.671-3.075.488-4.528Z" transform="translate(-4120.387 -1410.583)"/><path class="c" d="M4299.573,1446.694a15.942,15.942,0,0,0,.848,3.2l1.321,3.87c.563,1.655,1.207,3.418,2.632,4.432s3.865.734,4.41-.929c.345-1.046-.166-2.156-.518-3.2s-.47-2.386.394-3.073c.9-.713,2.2-.24,3.288.1s2.632.32,3-.767c.342-1.021-.675-2.314.026-3.133a1.428,1.428,0,0,1,1.948.1,14.488,14.488,0,0,1,1.324,1.716c1.729,2.054,5.37,1.6,6.99-.54s1.376-5.295-.06-7.562a12.843,12.843,0,0,0-6.339-4.736,18.163,18.163,0,0,0-10.893-.909,10.236,10.236,0,0,0-4.507,2.152,19.637,19.637,0,0,0-2.229,3.176A9.048,9.048,0,0,0,4299.573,1446.694Z" transform="translate(-4047.442 -1385.017)"/><path class="c" d="M4199.778,1491.316a10.466,10.466,0,0,0,4.806-6.674c.761-3.155.245-6.471-.457-9.64-1.091-4.944-2.625-9.776-4.155-14.6a7.816,7.816,0,0,0-1.233-2.662,2.655,2.655,0,0,0-2.6-1.034,3.059,3.059,0,0,0-1.917,2.707c-.15,1.165.025,2.362-.2,3.515-.473,2.382-2.516,4.066-4.089,5.916a17.871,17.871,0,0,0-3.131,17.274c.712,1.983,1.934,4.438,3.817,5.566a4.346,4.346,0,0,0,1.965.52c1,.076,2.023.183,3.022.191A8.4,8.4,0,0,0,4199.778,1491.316Z" transform="translate(-4167.46 -1361.969)"/><path class="a" d="M4251.43,1471.619a2.213,2.213,0,0,0-1.91-.923,5.733,5.733,0,0,0-2.3.542c-1.074.467-2.316,1.153-3.446.467-.565-.344-1.547,1.079-1,1.433,1.624,1.059,3.241-.157,4.841-.594a2.458,2.458,0,0,1,2.163.173c.81.7.238,2.467.135,3.39-.258,2.312-.245,4.682-.354,7l-.175,3.673a9.494,9.494,0,0,0,.137,3.334c.223.68.948.037,1.407-.539-.237.378-.255.436-.024.142a1.879,1.879,0,0,0,.3-.446c.021-.043.025-.1.043-.14a.976.976,0,0,0,.08-.167l-.057.091a4.354,4.354,0,0,0,.237-.777,17.372,17.372,0,0,0,.151-1.953c.065-1.326.073-2.656.109-3.983.065-2.545.282-5.139.161-7.683A6.059,6.059,0,0,0,4251.43,1471.619Z" transform="translate(-4107.504 -1347.137)"/><path class="a" d="M4252.95,1477.448a4.571,4.571,0,0,0-.808.843,11.688,11.688,0,0,1,.845-5.061,3.192,3.192,0,0,1,2.517-2c1.261-.165,2.11.627,3.28.8.59.084,1.082-.806,1.052-1.3-.1-1.764-2.059-2.173-3.546-1.988a6.459,6.459,0,0,0-4.3,2.97c-2.483,3.64-2.22,8.474-1.824,12.66.17,1.823.72,3.909,2.411,4.91,1.708,1.009,3.666.276,4.975-1.04,2.537-2.549,3.255-8.107.354-10.68A3.875,3.875,0,0,0,4252.95,1477.448Zm4.63,6.787c-.1,1.042-.3,2.35-1.441,2.711a2.676,2.676,0,0,1-2.867-1.348,7.88,7.88,0,0,1-.938-3.846c.254-.275.45-.7.35-.945a1.41,1.41,0,0,1,1.392-2.1,3.91,3.91,0,0,1,2.83,1.864A5.96,5.96,0,0,1,4257.58,1484.236Z" transform="translate(-4099.808 -1349.246)"/><path class="a" d="M4240.959,1466.164a5.255,5.255,0,0,0-.589-.627c-.369-.366-.742-.731-1.113-1.1q-1.112-1.1-2.222-2.193c-.105-.107-.341-.031-.449.019a1.383,1.383,0,0,0-.5.454c-.193.29-.415.757-.123,1.05q1.084,1.1,2.17,2.2.532.54,1.069,1.083a5.508,5.508,0,0,0,.541.531c.263.2.571.107.873.062a.68.68,0,0,0,.449-.559C4241.07,1466.795,4241.144,1466.409,4240.959,1466.164Z" transform="translate(-4114.666 -1356.109)"/><path class="a" d="M4238.329,1465.53a1.424,1.424,0,0,0-.435-.417c-.266-.209-.531-.425-.8-.633s-.542-.38-.81-.569a1.972,1.972,0,0,0-.528-.234c-.078-.024-.154-.059-.232-.078a.537.537,0,0,0-.422.115l-.009,0c-.014,0-.024.024-.041.029-.028.02-.057.035-.087.056l.043-.023a.645.645,0,0,0-.346.507l.009-.065a.759.759,0,0,0-.048.573,1.929,1.929,0,0,0,.116.2,2.149,2.149,0,0,0,.3.456c.2.208.414.4.621.6s.421.386.635.576c.113.1.225.195.335.294a1.625,1.625,0,0,0,.351.267.679.679,0,0,0,.724-.15,1.872,1.872,0,0,0,.563-.736A.984.984,0,0,0,4238.329,1465.53Z" transform="translate(-4115.982 -1354.639)"/><path class="a" d="M4235,1466.346l-.051.429a1.357,1.357,0,0,0,.057-.524.4.4,0,0,0-.123-.259c-.064-.072-.123-.144-.184-.218-.119-.136-.234-.273-.351-.409-.239-.284-.477-.565-.717-.847a.261.261,0,0,0-.187-.154.325.325,0,0,0-.259-.021,1.271,1.271,0,0,0-.605.386,1.888,1.888,0,0,0-.442.738l-.053.239a.673.673,0,0,0,.053.386c.236.286.47.574.705.859.112.14.229.278.342.417l.182.222a1.337,1.337,0,0,0,.177.209.487.487,0,0,0,.406.043l-.171.008a1.04,1.04,0,0,1,.232.05l.146-.009.16-.057a1.238,1.238,0,0,0,.4-.344,1.623,1.623,0,0,0,.24-.4.879.879,0,0,0,.081-.462A1.694,1.694,0,0,1,4235,1466.346Z" transform="translate(-4118.625 -1353.859)"/><path class="a" d="M4269.332,1456.433a.335.335,0,0,0-.419-.3l-5.071.837a1.3,1.3,0,0,0-.842.9c-.091.292-.044.664.32.637-.05.054-.105.105-.15.16a3.809,3.809,0,0,0-.437,4.269,3.369,3.369,0,0,0,3.107,1.633,4.367,4.367,0,0,0,3.35-2.7C4270,1460.106,4269.714,1458.274,4269.332,1456.433Z" transform="translate(-4086.762 -1362.511)"/><g transform="translate(105.444 185.703)"><path class="d" d="M4284.189,1534.619c-6.657-8.7-16.875-12.583-26.4-17.272a61.242,61.242,0,0,1-13.636-8.61c-4.011-3.527-7.96-8.059-13.773-7.8-.566.027-1.376,1.461-.73,1.464,5.734.022,9.62,4.841,13.585,8.333a61.562,61.562,0,0,0,13.262,8.461c9.281,4.668,19.547,8.608,26.449,16.737C4283.452,1536.533,4284.58,1535.129,4284.189,1534.619Z" transform="translate(-4226.887 -1500.93)"/><path class="d" d="M4271.069,1529.409c-4.957-3.052-10.391-5.2-15.623-7.71-9.916-4.758-18.125-11.583-25.792-19.375-.236-.24-.787.506-.613.752,6.115,8.688,14.921,15.244,24.4,19.889,5.113,2.508,10.462,4.553,15.407,7.41a42.333,42.333,0,0,1,6.262,4.343c2.128,1.811,3.782,4.012,5.734,5.985.317.323.835-.61.726-.89C4279.737,1535.263,4275.105,1531.894,4271.069,1529.409Z" transform="translate(-4227.311 -1499.508)"/><path class="d" d="M4280.16,1538.155c-8.535-5.231-17.253-10.154-25.771-15.416s-16.678-11.124-24.713-17.07c-.673-.5-1.994,1.367-1.3,1.852,8.235,5.714,16.685,11.079,25.093,16.53a269.757,269.757,0,0,0,25.915,15.21C4279.837,1539.487,4280.587,1538.416,4280.16,1538.155Z" transform="translate(-4228.181 -1496.016)"/></g><path class="c" d="M4245.158,1561.884c-.486-1.355-2.511-2.142-3.7-2.75a46.541,46.541,0,0,0-13.652-4.483c-.6-.1-1.435,1.372-.747,1.5a44.627,44.627,0,0,1,13.29,4.571c.714.381,1.4.818,2.113,1.2a4.58,4.58,0,0,0,2.152.748A.655.655,0,0,0,4245.158,1561.884Z" transform="translate(-4124.193 -1258.532)"/><path class="c" d="M4276.841,1526.907c-.234-.358-.689-.023-.9.181a49.087,49.087,0,0,0-5.7,6.828c-.823,1.192-1.592,2.426-2.311,3.686a21.007,21.007,0,0,0-2.007,4.071c-.284.917.7.709,1.032.155.725-1.2,1.266-2.522,1.948-3.751s1.414-2.405,2.2-3.556a46.1,46.1,0,0,1,5.358-6.452C4276.7,1527.832,4277.063,1527.246,4276.841,1526.907Z" transform="translate(-4082.956 -1287.975)"/><g transform="translate(285.639 292.944)"><path class="a" d="M4319.845,1553.113a1.64,1.64,0,0,0-1.049,1.122q-1.449,5.084-2.9,10.166c-.206.724.273,1.032.876.615a18.841,18.841,0,0,0,1.667-1.455,1.108,1.108,0,0,0,.447-.808c-.018-.262-.2-.359-.446-.245-.215.1-.433.2-.647.3q1.25-4.449,2.5-8.9C4320.391,1553.542,4320.349,1553.03,4319.845,1553.113Z" transform="translate(-4315.848 -1553.104)"/><path class="a" d="M4321.342,1553.585c-.415.055-.811.6-.911.974q-.682,2.5-1.367,5-.341,1.248-.681,2.5c-.117.431-.235.863-.32,1.3-.06.308-.147.742.168.941.227.144.5-.09.649-.232a4.839,4.839,0,0,0,1.046-2.516c.2-.8.4-1.6.595-2.394l1.208-4.88C4321.81,1553.951,4321.785,1553.523,4321.342,1553.585Z" transform="translate(-4313.57 -1552.602)"/><path class="a" d="M4323.8,1553.455a16.877,16.877,0,0,0-2.589,5.519,17.594,17.594,0,0,0-.605,2.993c-.053.491-.083.985-.1,1.479a3.731,3.731,0,0,0,.024.757,4.355,4.355,0,0,0,.255.631c.1.286.517.078.653-.023a1.441,1.441,0,0,0,.538-.891,8.928,8.928,0,0,0,.2-1.4c.007-.429.03-.859.066-1.288a18.318,18.318,0,0,1,2.166-7.536C4324.714,1553.065,4324.141,1553,4323.8,1553.455Z" transform="translate(-4310.933 -1553.043)"/></g><g transform="translate(265.493 166.254)"><path class="b" d="M4402.745,1531.616c-1.919-.66-3.866-1.231-4.771-2.522-.721-1.027-.731-5.552-1.1-6.547-2.071-5.529-6.2-4.933-1.856-13.284a9.1,9.1,0,0,0-2.179-8.2c4.679-4.464,9.373-8.9,13.889-13.445a1.634,1.634,0,0,0-1.644-2.758c-9.942,4.155-17.173,12.681-24.971,20.1-7.5,7.128-15.3,12.179-20.236,21.722-7.148,13.837-11.765,25.023-25.116,33.192-8.219,5.027-14.045,13.884-18.606,22.517-.428.812.451,1.869,1.208,1.178a99.438,99.438,0,0,0,8.519-9.143c5.551-6.469,10.914-9.3,17.417-14.3,7.125-5.484,12.665-13.624,17.216-21.474a105.543,105.543,0,0,1,7.659-11.344,30.48,30.48,0,0,1,5.539-2.654,3.4,3.4,0,0,0,1.626-.045l5.56,2.118c2.089,4.214-1.942,7.526-4.629,9.882-2.957,2.59-5.941,4-8.052,7.525-3.221,5.371-4.925,10.115-8.949,15.009-2.361,2.875-4.4,5.5-5.637,9.058-.218.621.581,1.3,1.066.787,5.138-5.478,11.716-9.881,15.766-16.358.443-.711.874-1.352,1.305-2.016,6.023-6.123,12.849-10.945,21.5-9.432,4.671.818,9.99,4.47,13.781-.567C4411.16,1535.152,4407.872,1532.636,4402.745,1531.616Z" transform="translate(-4316.039 -1484.727)"/><path class="b" d="M4403.762,1512.466a95.373,95.373,0,0,1-12.471,10.1,33.356,33.356,0,0,1-5.129,2.8,1.11,1.11,0,0,0,0-.127,2.31,2.31,0,0,0-2.038-1.959,15.617,15.617,0,0,1-4.99-.431,1.529,1.529,0,0,0-1.295.2c-2.87-1.572-6.232-2.553-5.19-5.975.143-.465-.237-1.092-.75-.938-2.675.793-2.729,3.652-1.4,5.92a9.584,9.584,0,0,0,3.962,3.371c1.647.894,3.335,1.254,3.355,3.63,0,.012,0,.024,0,.039-.529.278-1.057.561-1.572.874-8.01,4.828-14.861,13.225-20.461,20.836-.47.642.406,1.461.983.958,9.151-7.979,17.445-14.715,28.506-19.609,8.036-3.556,17.343-8.189,21.744-16.53C4408.143,1513.485,4405.759,1510.521,4403.762,1512.466Z" transform="translate(-4274.231 -1456.117)"/><path class="b" d="M4365.657,1526.386c-4.65,2.027-6.675,6.072-9.587,10.109-3.281,4.557-8.249,7.182-11.015,12.152a.687.687,0,0,0,1.1.816c3.179-4.019,7.606-6.615,10.925-10.465,3.169-3.675,5.46-8.327,9.5-11.05C4367.459,1527.36,4366.538,1526,4365.657,1526.386Z" transform="translate(-4285.527 -1440.83)"/><path class="b" d="M4353.374,1517.116c-3.5,3.885-6.986,7.614-9.734,12.142a.962.962,0,0,0,1.362,1.323c4.066-3.243,7.318-7.2,10.715-11.186C4356.917,1517.989,4354.621,1515.728,4353.374,1517.116Z" transform="translate(-4287.073 -1451)"/></g><g transform="translate(342.112 157.128)"><ellipse class="c" cx="38.283" cy="38.283" rx="38.283" ry="38.283" transform="translate(0.202)"/><path class="a" d="M4384.984,1486.916A47.728,47.728,0,0,0,4361,1499.54a55.719,55.719,0,0,1,2.872-14.376,5.578,5.578,0,0,1,.718-1.521,5.013,5.013,0,0,1,3.8-1.519,27.812,27.812,0,0,1,15.979,4.391C4384.583,1486.642,4384.772,1486.767,4384.984,1486.916Z" transform="translate(-4345.202 -1478.395)"/><path class="a" d="M4385.819,1517.055a54.61,54.61,0,0,1-5.513-5.044c-1.9,2.3-3.924,4.475-5.825,6.8a2.23,2.23,0,0,0-.318.547c-.966-.191-1.924-.417-2.884-.666-1.743-.448-3.365-1.206-5.066-1.736a13.322,13.322,0,0,1-4.574-2.9,38.443,38.443,0,0,1-3.867-4.224c-.124-.15-.4.193-.309.327a21.4,21.4,0,0,0,5.477,5.25,23.352,23.352,0,0,1-5.693-4.939c-.045-.054-.145.072-.112.117a27.985,27.985,0,0,0,7.28,6.952,21.745,21.745,0,0,0,9.583,3.157.321.321,0,0,0,.161-.068,2.562,2.562,0,0,0,1.02,1.2,8.519,8.519,0,0,0,4.391,1.036,50.76,50.76,0,0,0,9.458-.38c1.584-.233,3.167-.528,4.73-.909A25.633,25.633,0,0,1,4385.819,1517.055Z" transform="translate(-4349.289 -1449.149)"/><path class="a" d="M4375.907,1521.108c-.277.36-.573.7-.869,1.036a55.084,55.084,0,0,1-12.918-21.957c9.119.781,18.281,1.225,27.425,1.373-.528.927-1.1,1.856-1.67,2.764-1.836,2.913-3.736,5.764-5.744,8.551C4380.15,1515.684,4378.058,1518.428,4375.907,1521.108Z" transform="translate(-4344.02 -1459.283)"/><path class="a" d="M4396.527,1485.845a3.6,3.6,0,0,0-2.714-2A2.435,2.435,0,0,0,4391.7,1485a46.827,46.827,0,0,0-19.036.047,56.015,56.015,0,0,1,11.887,10.789c1.267,1.458,2.468,2.934,3.631,4.434,2.048-4.559,3.775-9.363,3.775-14.321a.928.928,0,0,0,.255-.388l.009.02c.057.025.064.1.106.148.066.074.1.074.2.092.172.038.348.062.522.093l2,.351a7.791,7.791,0,0,1,1.039.193C4396.334,1486.536,4396.635,1486.037,4396.527,1485.845Z" transform="translate(-4332.887 -1476.531)"/><path class="a" d="M4395.724,1510.335a48.041,48.041,0,0,1-6.715,7.412,15.94,15.94,0,0,1-9.038,3.946,13.529,13.529,0,0,1-5.023-.7c1.522-.357,3.04-.781,4.518-1.286a48.118,48.118,0,0,0,8.637-3.908,46.691,46.691,0,0,0,3.967-2.553c.633-.464,1.266-.929,1.877-1.414A10.107,10.107,0,0,0,4395.724,1510.335Z" transform="translate(-4330.48 -1448.573)"/><path class="a" d="M4395.337,1527.056c-.136.545-.288,1.087-.46,1.623a4.811,4.811,0,0,1-.563,1.593,40.712,40.712,0,0,0,11.708-23.268,19.4,19.4,0,0,1-7.642,1.68,9.971,9.971,0,0,0-3.261.205,7.812,7.812,0,0,1-.811-.806c.405-1.455-.347-3.255-1.177-4.658a107.183,107.183,0,0,0-7.9-11.588c-.168.337-.317.653-.464.991-.335.76-.7,1.521-1.055,2.282-1.479,3.1-3.04,6.164-4.708,9.161-1.119,2.049-2.3,4.1-3.546,6.1q7.219.126,14.419-.043a8,8,0,0,0,2.751-.454l.4.082c.423.086.851.163,1.279.242,0,.058-.016.094-.006.156.178,1.065.715,2.125.984,3.182a27.727,27.727,0,0,1,.05,13.517Z" transform="translate(-4329.939 -1468.096)"/><path class="a" d="M4357.548,1508.917c4.617.555,9.225,1.046,13.865,1.418-.083-.233-.168-.485-.231-.717a54.785,54.785,0,0,1-2.07-19.044l-.04.043a68.124,68.124,0,0,0-12.2,17.434l-.111-.012a2.257,2.257,0,0,0,.216-.467c.005-.021-.019-.009-.022,0a2.185,2.185,0,0,1-.206.461,5.194,5.194,0,0,0-1.149-.053,2.137,2.137,0,0,0-1.819,1.459,7.271,7.271,0,0,0-.261,1.447c-.067.546-.121,1.093-.157,1.642a23.325,23.325,0,0,0,.034,3.3c.009.1.074.124.134.148a.782.782,0,0,0,.048.682.179.179,0,0,0,.241.025c.019.109.014.22.037.329.059.263.313.2.482.076a.893.893,0,0,0,.372-.731,9.867,9.867,0,0,1-.016-1.466c.1-.287.189-.573.281-.861.3-.911.617-1.809.995-2.691.353-.816.75-1.614,1.174-2.394A3.453,3.453,0,0,0,4357.548,1508.917Z" transform="translate(-4353.314 -1469.43)"/></g></g></g></svg>