<svg xmlns="http://www.w3.org/2000/svg" width="62.785" height="53.641" viewBox="0 0 62.785 53.641"><defs><style>.a{fill:#ed5176;}.b{fill:#ba365f;}.c{fill:#e9e9ea;}.d{fill:#c5c4cc;}.e{fill:#575b7a;}.f{fill:#6a7193;}.g{fill:#252d4c;}.h{fill:#8cbafa;}.i{fill:#5692d8;}.j{fill:#f9aa4b;}</style></defs><path class="a" d="M242.492,153.492v21.161a3.218,3.218,0,0,0,3.219,3.218h26.612a3.219,3.219,0,0,0,3.219-3.218V153.492Zm0,0" transform="translate(-212.756 -134.67)"/><path class="b" d="M444.693,13.057A3.858,3.858,0,0,1,440.834,9.2V1.287A1.288,1.288,0,0,0,439.547,0h-2.695a1.292,1.292,0,0,0-.137.007,1.287,1.287,0,0,1,1.151,1.28V9.2a3.858,3.858,0,0,0,3.859,3.858,1.254,1.254,0,0,1,1.254,1.254V39.984a3.218,3.218,0,0,1-3.219,3.218h2.969a3.219,3.219,0,0,0,3.219-3.218V14.311A1.254,1.254,0,0,0,444.693,13.057Zm0,0" transform="translate(-383.162)"/><path class="c" d="M274.284,13.057A3.858,3.858,0,0,1,270.425,9.2V1.287A1.288,1.288,0,0,0,269.138,0h-2.695a1.287,1.287,0,0,0-1.287,1.287V5.918a6.209,6.209,0,0,1-6.038,6.243,6.143,6.143,0,0,1-6.247-6.141V1.287A1.288,1.288,0,0,0,251.583,0h-2.695A1.287,1.287,0,0,0,247.6,1.287V9.2a3.858,3.858,0,0,1-3.858,3.858,1.255,1.255,0,0,0-1.255,1.255v4.511l16.525,7.928,16.525-7.928V14.311A1.254,1.254,0,0,0,274.284,13.057Zm0,0" transform="translate(-212.753)"/><path class="d" d="M444.693,13.057A3.858,3.858,0,0,1,440.834,9.2V1.287A1.288,1.288,0,0,0,439.547,0h-2.731c-.034,0-.067,0-.1.007a1.288,1.288,0,0,1,1.151,1.28V9.2a3.858,3.858,0,0,0,3.859,3.858,1.254,1.254,0,0,1,1.254,1.255v5.935l2.969-1.425V14.311A1.254,1.254,0,0,0,444.693,13.057Zm0,0" transform="translate(-383.162)"/><path class="c" d="M87.068,80.935H84.249a1.011,1.011,0,0,1-1.011-1.011V32.12a1.011,1.011,0,0,1,1.011-1.011h2.819a1.011,1.011,0,0,1,1.01,1.011v47.8A1.011,1.011,0,0,1,87.068,80.935Zm0,0" transform="translate(-73.031 -27.295)"/><path class="d" d="M83.238,159.8h4.839v2.842H83.238Zm0,0" transform="translate(-73.031 -140.208)"/><path class="e" d="M21.648,108.194H3.606a3.607,3.607,0,0,1,0-7.213H21.648a3.607,3.607,0,0,1,0,7.213Zm0,0" transform="translate(0 -88.597)"/><path class="f" d="M56.623,62.219H48.005a2.771,2.771,0,0,0-2.771,2.771v1.982H59.395V64.99A2.771,2.771,0,0,0,56.623,62.219Zm0,0" transform="translate(-39.687 -54.589)"/><path class="e" d="M21.648,308.734H3.606a3.607,3.607,0,0,0,0,7.213H21.648a3.607,3.607,0,0,0,0-7.213Zm0,0" transform="translate(0 -270.875)"/><path class="g" d="M154.84,100.98h-3.032a3.607,3.607,0,0,1,0,7.213h3.032a3.607,3.607,0,0,0,0-7.213Zm0,0" transform="translate(-133.193 -88.597)"/><path class="g" d="M154.84,308.734h-3.032a3.607,3.607,0,0,1,0,7.213h3.032a3.607,3.607,0,0,0,0-7.213Zm0,0" transform="translate(-133.193 -270.875)"/><path class="f" d="M56.623,372.308H48.005a2.771,2.771,0,0,1-2.771-2.771v-1.983H59.395v1.983A2.771,2.771,0,0,1,56.623,372.308Zm0,0" transform="translate(-39.687 -322.482)"/><path class="e" d="M116.418,62.219h-3.032a2.771,2.771,0,0,1,2.771,2.771v1.982h3.032V64.99A2.771,2.771,0,0,0,116.418,62.219Zm0,0" transform="translate(-99.482 -54.589)"/><path class="e" d="M116.158,367.555v1.983a2.771,2.771,0,0,1-2.771,2.771h3.032a2.772,2.772,0,0,0,2.772-2.771v-1.983Zm0,0" transform="translate(-99.482 -322.482)"/><path class="h" d="M133.16,277.879h34.158a2.67,2.67,0,0,0,2.671-2.671V259.5a2.539,2.539,0,0,0-2.539-2.539h-.589a1.718,1.718,0,0,0-1.626,1.164,6.749,6.749,0,0,1-12.734.126,1.955,1.955,0,0,0-1.839-1.29h-2.3a2.536,2.536,0,0,0-1.305.361l-16.8,10.069a5.648,5.648,0,0,0,2.9,10.492Zm0,0" transform="translate(-111.875 -225.447)"/><path class="i" d="M428.927,256.957h-.589a1.714,1.714,0,0,0-1.188.478,2.537,2.537,0,0,1,1.056,2.062v15.713a2.67,2.67,0,0,1-2.67,2.67h3.26a2.67,2.67,0,0,0,2.671-2.67V259.5A2.539,2.539,0,0,0,428.927,256.957Zm0,0" transform="translate(-373.353 -225.447)"/><path class="j" d="M251.475,267.262l-3.232,1.938,12.365,17.721h4.585Zm0,0" transform="translate(-217.801 -234.488)"/><path class="j" d="M205.583,314.445h4.585l-11.033-15.812L195.9,300.57Zm0,0" transform="translate(-171.879 -262.012)"/><path class="c" d="M127.543,382.727a5.646,5.646,0,0,0,5.644,5.5h34.158a2.67,2.67,0,0,0,2.671-2.67v-2.829Zm0,0" transform="translate(-111.903 -335.794)"/><path class="d" d="M428.223,385.556a2.67,2.67,0,0,1-2.668,2.67h3.258a2.67,2.67,0,0,0,2.671-2.67v-2.83h-3.26Zm0,0" transform="translate(-373.37 -335.794)"/><path class="c" d="M184.962,266.809l10.012-6a2.389,2.389,0,0,0,1.161-2.049v-1.8h-.171a2.537,2.537,0,0,0-1.305.362l-12.393,7.428a1.023,1.023,0,0,0-.285,1.5A2.281,2.281,0,0,0,184.962,266.809Zm0,0" transform="translate(-159.48 -225.444)"/><path class="e" d="M359.428,133.575h-.115v-3.714a1.46,1.46,0,0,0-1.459-1.459h-.637a.947.947,0,1,0,0,1.895h.2v3.277H357.3a.947.947,0,1,0,0,1.895h2.126a.947.947,0,1,0,0-1.895Zm0,0" transform="translate(-312.581 -112.657)"/></svg>