<svg xmlns="http://www.w3.org/2000/svg" width="160" height="47.407" viewBox="0 0 160 47.407"><defs><style>.a{fill:#fff;}.b{fill-rule:evenodd;}</style></defs><g transform="translate(0 -2.465)"><rect class="a" width="160" height="47" rx="6" transform="translate(0 2.669)"/><g transform="translate(0 2.465)"><path d="M154.073.948a4.977,4.977,0,0,1,4.978,4.978V41.481a4.977,4.977,0,0,1-4.978,4.978H5.926A4.978,4.978,0,0,1,.948,41.481V5.926A4.978,4.978,0,0,1,5.926.948Zm0-.948H5.926A5.926,5.926,0,0,0,0,5.926V41.481a5.926,5.926,0,0,0,5.926,5.926H154.073A5.926,5.926,0,0,0,160,41.481V5.926A5.926,5.926,0,0,0,154.073,0Z"/><path d="M97.713,32.828a5.037,5.037,0,1,0,5.061,5.037,4.966,4.966,0,0,0-5.061-5.037Zm0,8.095a3.058,3.058,0,1,1,2.844-3.058,2.916,2.916,0,0,1-2.844,3.058ZM86.679,32.828a5.037,5.037,0,1,0,5.049,5.037,4.966,4.966,0,0,0-5.061-5.037Zm0,8.095a3.058,3.058,0,1,1,2.833-3.058,2.915,2.915,0,0,1-2.844,3.058ZM73.535,34.38v2.133h5.12A4.468,4.468,0,0,1,77.47,39.2a5.239,5.239,0,0,1-3.947,1.564,5.689,5.689,0,1,1,0-11.378A5.452,5.452,0,0,1,77.4,30.919L78.9,29.414A7.455,7.455,0,0,0,73.535,27.2a7.834,7.834,0,1,0,0,15.656,6.918,6.918,0,0,0,7.313-7.194,6.953,6.953,0,0,0-.119-1.339Zm53.7,1.659a4.659,4.659,0,0,0-9.055,1.825,4.931,4.931,0,0,0,5,5.037,5.013,5.013,0,0,0,4.2-2.228l-1.719-1.185a2.881,2.881,0,0,1-2.477,1.4,2.56,2.56,0,0,1-2.441-1.529l6.744-2.785Zm-6.874,1.683a2.761,2.761,0,0,1,2.631-2.939,1.956,1.956,0,0,1,1.873,1.067Zm-5.476,4.883H117.1V27.791h-2.216Zm-3.627-8.652h-.083a3.555,3.555,0,0,0-2.655-1.185,5.049,5.049,0,0,0,0,10.086,3.436,3.436,0,0,0,2.655-1.185h.071v.723c0,1.932-1.031,2.963-2.69,2.963a2.785,2.785,0,0,1-2.536-1.79l-1.932.806a4.8,4.8,0,0,0,4.468,2.975c2.6,0,4.741-1.529,4.741-5.25V33.124H111.26Zm-2.536,6.969a3.07,3.07,0,0,1,0-6.116,2.845,2.845,0,0,1,2.69,3.058,2.821,2.821,0,0,1-2.7,3.058Zm28.895-13.132h-5.3V42.605h2.216V36.987h3.093a4.61,4.61,0,1,0,0-9.2Zm0,7.111h-3.093V29.853h3.141a2.542,2.542,0,1,1,0,5.084Zm13.665-2.133a4.149,4.149,0,0,0-3.947,2.264l1.967.818a2.1,2.1,0,0,1,2.015-1.09,2.133,2.133,0,0,1,2.37,1.908v.154a4.9,4.9,0,0,0-2.311-.569c-2.121,0-4.267,1.185-4.267,3.33a3.426,3.426,0,0,0,3.674,3.259,3.118,3.118,0,0,0,2.844-1.422h.071v1.185h2.133V36.9c0-2.6-1.967-4.1-4.492-4.1Zm-.273,8.118c-.723,0-1.73-.367-1.73-1.256,0-1.185,1.256-1.576,2.37-1.576a3.935,3.935,0,0,1,2.015.5,2.679,2.679,0,0,1-2.6,2.37Zm12.6-7.763-2.536,6.424H161l-2.631-6.424H156l3.947,8.984-2.252,4.99h2.311l6.068-13.973Zm-19.923,9.481H145.9V27.791h-2.216Z" transform="translate(-16.955 -7.05)"/><path d="M73.252,15.079a3.212,3.212,0,0,1-.889,2.37A3.449,3.449,0,0,1,69.756,18.5a3.733,3.733,0,0,1-2.619-6.364,3.555,3.555,0,0,1,2.619-1.067,3.674,3.674,0,0,1,1.458.3,2.928,2.928,0,0,1,1.114.794l-.628.628a2.37,2.37,0,0,0-1.944-.841,2.749,2.749,0,0,0-2.761,2.844,2.8,2.8,0,0,0,4.741,2.05,2.24,2.24,0,0,0,.593-1.446H69.756v-.853H73.2A3.016,3.016,0,0,1,73.252,15.079Zm5.428-2.963h-3.2v2.252H78.4v.853H75.48v2.252h3.2v.877H74.532V11.239H78.68Zm3.887,6.234h-.913V12.116H79.664v-.877h4.942v.877H82.567Zm5.523,0V11.239H89V18.35Zm4.966,0h-.913V12.116H90.153v-.877h4.883v.877H93.056Zm11.235-.924a3.7,3.7,0,0,1-5.215,0,3.839,3.839,0,0,1,0-5.274,3.674,3.674,0,0,1,5.215,0,3.828,3.828,0,0,1,0,5.274Zm-4.539-.593a2.738,2.738,0,0,0,3.864,0,3.035,3.035,0,0,0,0-4.077,2.738,2.738,0,0,0-3.864,0,3.035,3.035,0,0,0,0,4.077Zm6.874,1.517V11.239h1.114l3.461,5.535V11.239h.913V18.35h-.948l-3.615-5.8v5.8Z" transform="translate(-17.125 -2.869)"/><path class="b" d="M101.643,11.143a3.556,3.556,0,0,0-2.522,1.05,3.72,3.72,0,0,0,0,5.109,3.579,3.579,0,0,0,5.045,0,3.709,3.709,0,0,0,0-5.109,3.555,3.555,0,0,0-2.522-1.05Zm-1.458.054a3.793,3.793,0,0,1,4.15.829v0a3.946,3.946,0,0,1,0,5.437l0,0a3.817,3.817,0,0,1-5.382,0l0,0a3.957,3.957,0,0,1,0-5.437l0,0A3.789,3.789,0,0,1,100.185,11.2ZM69.712,11.15a3.438,3.438,0,0,0-2.532,1.031h0a3.615,3.615,0,0,0,2.536,6.162h0a3.33,3.33,0,0,0,2.518-1.018,3.093,3.093,0,0,0,.856-2.283l.118-.005h-.119a2.9,2.9,0,0,0-.03-.415H69.833v.616h2.576l0,.122a2.359,2.359,0,0,1-.624,1.522l0,0a2.916,2.916,0,0,1-4.942-2.135,2.868,2.868,0,0,1,2.877-2.964,2.489,2.489,0,0,1,1.952.787l.459-.459a2.808,2.808,0,0,0-.995-.68h0a3.556,3.556,0,0,0-1.411-.287Zm3.617,3.885a3.331,3.331,0,0,1-.922,2.455,3.568,3.568,0,0,1-2.7,1.091,3.852,3.852,0,0,1-2.7-6.566,3.674,3.674,0,0,1,2.7-1.1,3.792,3.792,0,0,1,1.5.305,3.046,3.046,0,0,1,1.158.826l.073.083-.8.8-.083-.1a2.252,2.252,0,0,0-1.847-.8h-.007a2.631,2.631,0,0,0-2.642,2.722v.006a2.678,2.678,0,0,0,4.537,1.966,2.121,2.121,0,0,0,.551-1.245H69.6v-1.09h3.666l.017.1A3.131,3.131,0,0,1,73.329,15.035Zm1.043-3.956h4.385v1.114h-3.2v2.015h2.916V15.3H75.557v2.015h3.2v1.114H74.372Zm.237.237V18.19H78.52v-.64h-3.2V15.062h2.916v-.616H75.32V11.956h3.2v-.64Zm4.895-.237h5.179v1.114H82.645v6.234h-1.15V12.194H79.5Zm.237.237v.64h1.991V18.19h.676V11.956h2.039v-.64Zm8.19-.237h1.15v7.348H87.93Zm.237.237V18.19h.676V11.316Zm1.825-.237h5.12v1.114H93.133v6.234h-1.15V12.194H89.993Zm.237.237v.64h1.991V18.19H92.9V11.956h1.979v-.64Zm16.237-.237h1.3l3.276,5.24v-5.24h1.15v7.348h-1.133l-3.43-5.5v5.5h-1.161Zm.237.237V18.19h.687V12.1l3.8,6.091h.764V11.316h-.676v5.829l-3.645-5.829Zm-7.076,1.315a2.856,2.856,0,0,1,4.031,0l0,0a3.154,3.154,0,0,1,0,4.236l0,0a2.857,2.857,0,0,1-4.031,0l.084-.084-.087.08a3.152,3.152,0,0,1,0-4.236Zm.17,4.079a2.619,2.619,0,0,0,3.692,0,2.916,2.916,0,0,0,0-3.913,2.619,2.619,0,0,0-3.692,0,2.916,2.916,0,0,0,0,3.913Z" transform="translate(-17.083 -2.828)"/><path d="M16.577,41.785,31.1,26.726,16.589,11.694a1.676,1.676,0,0,0-.627,1.485V40.314A1.708,1.708,0,0,0,16.577,41.785Z" transform="translate(-4.138 -3.032)"/><path d="M32.1,26.254l4.325-4.486L18.816,11.751a1.9,1.9,0,0,0-.977-.274L32.1,26.252Z" transform="translate(-4.625 -2.976)"/><path d="M32.088,32.551,17.781,47.391A1.888,1.888,0,0,0,18.8,47.11L36.449,37.066Z" transform="translate(-4.61 -8.439)"/><path d="M47.941,29.108,42.08,25.768l-4.443,4.609,4.476,4.638,5.826-3.33A1.358,1.358,0,0,0,47.941,29.108Z" transform="translate(-9.758 -6.681)"/></g></g></svg>