<svg xmlns="http://www.w3.org/2000/svg" width="150" height="47" viewBox="0 0 150 47"><defs><style>.a{fill:#fff;}</style></defs><g transform="translate(0.468 0.332)"><rect class="a" width="150" height="47" rx="6" transform="translate(-0.468 -0.331)"/><g transform="translate(-0.468 -0.332)"><path d="M144.444.94a4.542,4.542,0,0,1,3.3,1.445,5.083,5.083,0,0,1,1.367,3.49v35.25a5.083,5.083,0,0,1-1.367,3.49,4.542,4.542,0,0,1-3.3,1.445H5.556a4.542,4.542,0,0,1-3.3-1.445,5.083,5.083,0,0,1-1.367-3.49V5.875a5.083,5.083,0,0,1,1.367-3.49A4.542,4.542,0,0,1,5.556.94Zm0-.94H5.556A5.407,5.407,0,0,0,1.627,1.721,6.051,6.051,0,0,0,0,5.875v35.25a6.051,6.051,0,0,0,1.627,4.154A5.407,5.407,0,0,0,5.556,47H144.444a5.407,5.407,0,0,0,3.928-1.721A6.052,6.052,0,0,0,150,41.125V5.875a6.052,6.052,0,0,0-1.627-4.154A5.406,5.406,0,0,0,144.444,0Z"/><path d="M35.111,34.572H21.192a1.766,1.766,0,1,0,0,3.532H37.23a1.684,1.684,0,0,0-.062-2.181A2.717,2.717,0,0,0,35.111,34.572Z" transform="translate(-5.725 -9.098)"/><path d="M36.954,13.14,28.312,28.1a1.764,1.764,0,0,0,3.054,1.766l8.642-14.957a1.761,1.761,0,0,0-.644-2.41A1.743,1.743,0,0,0,36.954,13.14Z" transform="translate(-8.275 -3.007)"/><path d="M51.411,37.388,42.54,21.994a3.876,3.876,0,0,0-1.288,2.971,6.861,6.861,0,0,0,.81,3.3l6.295,10.906a1.743,1.743,0,0,0,2.41.644A1.809,1.809,0,0,0,51.411,37.388Z" transform="translate(-12.173 -5.415)"/><path d="M54.127,34.572H49.2a1.766,1.766,0,1,0,0,3.532h4.923a1.766,1.766,0,1,0,0-3.532Z" transform="translate(-13.998 -9.098)"/><path d="M38.657,16.378l-1.87-3.261a1.764,1.764,0,0,0-3.054,1.766l1.87,3.261a1.764,1.764,0,1,0,3.054-1.766Z" transform="translate(-9.874 -3.189)"/><path d="M23.069,42.758l1.122-1.932s.27-.54,1.33-.54a2.849,2.849,0,0,1,2.285,1.288l-1.683,2.95a1.743,1.743,0,0,1-2.41.644A1.761,1.761,0,0,1,23.069,42.758Z" transform="translate(-6.73 -10.551)"/><path d="M82.184,42.788H79.742l-1.337-4.2H73.755l-1.274,4.2H70.1L74.71,28.48h2.845ZM78,36.822l-1.21-3.736q-.192-.573-.721-2.7h-.043q-.211.913-.68,2.7L74.16,36.822Z" transform="translate(-20.687 -7.18)"/><path d="M99.875,39.082a5.865,5.865,0,0,1-1.423,4.16A4.161,4.161,0,0,1,95.289,44.6a3.163,3.163,0,0,1-2.93-1.464h-.043v5.435H90.024V37.447q0-1.655-.085-3.4h2.016l.128,1.635h.043a4.079,4.079,0,0,1,6.528-.4A5.686,5.686,0,0,1,99.875,39.082Zm-2.336.084a4.249,4.249,0,0,0-.679-2.484,2.347,2.347,0,0,0-2-1.019,2.384,2.384,0,0,0-1.539.562,2.608,2.608,0,0,0-.9,1.476,3,3,0,0,0-.106.7v1.72a2.757,2.757,0,0,0,.69,1.9A2.288,2.288,0,0,0,94.8,42.8a2.347,2.347,0,0,0,2.016-1A4.391,4.391,0,0,0,97.539,39.166Z" transform="translate(-26.539 -8.111)"/><path d="M116.7,39.082a5.859,5.859,0,0,1-1.424,4.16,4.155,4.155,0,0,1-3.162,1.359,3.161,3.161,0,0,1-2.929-1.464h-.043v5.435h-2.292V37.447q0-1.655-.085-3.4h2.016l.128,1.635h.043a4.08,4.08,0,0,1,6.529-.4A5.7,5.7,0,0,1,116.7,39.082Zm-2.336.084a4.244,4.244,0,0,0-.681-2.484,2.342,2.342,0,0,0-1.994-1.019,2.388,2.388,0,0,0-1.54.562,2.609,2.609,0,0,0-.9,1.476,3.064,3.064,0,0,0-.106.7v1.72a2.763,2.763,0,0,0,.688,1.9,2.292,2.292,0,0,0,1.8.775,2.346,2.346,0,0,0,2.016-1A4.391,4.391,0,0,0,114.365,39.166Z" transform="translate(-31.505 -8.111)"/><path d="M135.956,38.688a3.813,3.813,0,0,1-1.271,2.972,5.633,5.633,0,0,1-3.9,1.253,6.823,6.823,0,0,1-3.708-.891l.531-1.911a6.284,6.284,0,0,0,3.313.914,3.133,3.133,0,0,0,2.018-.585,1.91,1.91,0,0,0,.72-1.563,1.992,1.992,0,0,0-.595-1.467,5.525,5.525,0,0,0-1.974-1.106q-3.758-1.4-3.756-4.1a3.631,3.631,0,0,1,1.317-2.891,5.193,5.193,0,0,1,3.5-1.127,6.945,6.945,0,0,1,3.247.68l-.573,1.869a5.632,5.632,0,0,0-2.738-.658,2.771,2.771,0,0,0-1.888.595,1.7,1.7,0,0,0-.573,1.3,1.749,1.749,0,0,0,.657,1.4,7.436,7.436,0,0,0,2.082,1.1,7.06,7.06,0,0,1,2.717,1.74A3.634,3.634,0,0,1,135.956,38.688Z" transform="translate(-37.498 -7.089)"/><path d="M147.785,34.785h-2.526v5.009q0,1.911,1.337,1.911a4.078,4.078,0,0,0,1.018-.106l.063,1.741a5.2,5.2,0,0,1-1.783.254,2.75,2.75,0,0,1-2.124-.828,4.067,4.067,0,0,1-.765-2.781v-5.2H141.5v-1.72h1.505V31.173l2.252-.68v2.569h2.526Z" transform="translate(-41.753 -7.737)"/><path d="M162.352,39.124a5.658,5.658,0,0,1-1.359,3.906,4.852,4.852,0,0,1-3.78,1.571,4.615,4.615,0,0,1-3.618-1.506,5.487,5.487,0,0,1-1.348-3.8,5.6,5.6,0,0,1,1.39-3.927,4.811,4.811,0,0,1,3.746-1.529,4.711,4.711,0,0,1,3.651,1.507A5.424,5.424,0,0,1,162.352,39.124Zm-2.378.074a4.64,4.64,0,0,0-.615-2.448,2.264,2.264,0,0,0-2.058-1.234,2.3,2.3,0,0,0-2.1,1.234,4.729,4.729,0,0,0-.615,2.491,4.634,4.634,0,0,0,.615,2.447,2.343,2.343,0,0,0,4.139-.022A4.658,4.658,0,0,0,159.974,39.2Z" transform="translate(-44.925 -8.68)"/><path d="M174.833,36.066A3.989,3.989,0,0,0,174.11,36a2.165,2.165,0,0,0-1.868.914,3.436,3.436,0,0,0-.573,2.037v5.414h-2.291L169.4,37.3q0-1.784-.086-3.248h2l.084,1.974h.063a3.528,3.528,0,0,1,1.146-1.634,2.771,2.771,0,0,1,1.657-.553,3.68,3.68,0,0,1,.573.042Z" transform="translate(-49.959 -8.689)"/><path d="M187.844,38.713a5.365,5.365,0,0,1-.084,1.04h-6.877a2.992,2.992,0,0,0,1,2.336,3.406,3.406,0,0,0,2.249.721,7.6,7.6,0,0,0,2.782-.488l.36,1.591a8.606,8.606,0,0,1-3.459.638,5.011,5.011,0,0,1-3.77-1.412,5.216,5.216,0,0,1-1.368-3.789,5.91,5.91,0,0,1,1.275-3.885,4.393,4.393,0,0,1,3.607-1.655,3.845,3.845,0,0,1,3.377,1.655A5.582,5.582,0,0,1,187.844,38.713Zm-2.186-.595a3.108,3.108,0,0,0-.445-1.762,2,2,0,0,0-1.827-.956,2.175,2.175,0,0,0-1.825.934,3.422,3.422,0,0,0-.678,1.783h4.775Z" transform="translate(-52.731 -8.674)"/><path d="M77.812,14.578a3.53,3.53,0,0,1-1.138,2.858,4.525,4.525,0,0,1-2.992.886,13.885,13.885,0,0,1-1.648-.084V11.323a12.164,12.164,0,0,1,1.941-.146,4.184,4.184,0,0,1,2.785.8A3.246,3.246,0,0,1,77.812,14.578Zm-1.188.031a2.57,2.57,0,0,0-.652-1.888,2.568,2.568,0,0,0-1.9-.657,4.77,4.77,0,0,0-.907.073v5.257a5.944,5.944,0,0,0,.761.031,2.665,2.665,0,0,0,2-.719A2.881,2.881,0,0,0,76.624,14.609Z" transform="translate(-21.255 -2.908)"/><path d="M87.085,16.481a2.78,2.78,0,0,1-.668,1.919,2.383,2.383,0,0,1-1.857.772,2.265,2.265,0,0,1-1.778-.741,2.7,2.7,0,0,1-.661-1.867,2.753,2.753,0,0,1,.683-1.929,2.368,2.368,0,0,1,1.841-.75,2.318,2.318,0,0,1,1.795.74A2.676,2.676,0,0,1,87.085,16.481Zm-1.169.037a2.292,2.292,0,0,0-.3-1.2,1.113,1.113,0,0,0-1.011-.606,1.13,1.13,0,0,0-1.033.606,2.323,2.323,0,0,0-.3,1.224,2.292,2.292,0,0,0,.3,1.2,1.137,1.137,0,0,0,1.023.606,1.124,1.124,0,0,0,1.011-.617A2.278,2.278,0,0,0,85.916,16.518Z" transform="translate(-24.231 -3.635)"/><path d="M98.067,14.032,96.481,19.1H95.449l-.657-2.2a16.466,16.466,0,0,1-.408-1.638h-.02a11.982,11.982,0,0,1-.408,1.638l-.7,2.2H92.215l-1.491-5.068h1.158l.573,2.41q.208.855.344,1.627h.02q.126-.635.418-1.616l.719-2.419h.918l.689,2.368q.25.866.406,1.669H96a15.964,15.964,0,0,1,.344-1.669l.615-2.368h1.107Z" transform="translate(-26.77 -3.676)"/><path d="M107.562,19.056h-1.127v-2.9q0-1.342-1.021-1.342a1.017,1.017,0,0,0-.814.369,1.31,1.31,0,0,0-.313.869v3.006H103.16V15.436q0-.668-.041-1.45h.99l.053.792h.031a1.625,1.625,0,0,1,.584-.612,1.9,1.9,0,0,1,1.021-.285,1.616,1.616,0,0,1,1.179.459,2.231,2.231,0,0,1,.584,1.679Z" transform="translate(-30.427 -3.635)"/><path d="M113.354,18.129h-1.126V10.735h1.126Z" transform="translate(-33.114 -2.79)"/><path d="M121.155,16.481a2.781,2.781,0,0,1-.668,1.919,2.383,2.383,0,0,1-1.857.772,2.262,2.262,0,0,1-1.778-.741,2.7,2.7,0,0,1-.662-1.867,2.754,2.754,0,0,1,.683-1.929,2.369,2.369,0,0,1,1.84-.75,2.322,2.322,0,0,1,1.8.74A2.675,2.675,0,0,1,121.155,16.481Zm-1.17.037a2.293,2.293,0,0,0-.3-1.2,1.112,1.112,0,0,0-1.01-.606,1.128,1.128,0,0,0-1.033.606,2.327,2.327,0,0,0-.3,1.224,2.293,2.293,0,0,0,.3,1.2,1.137,1.137,0,0,0,1.023.606,1.123,1.123,0,0,0,1.01-.617A2.27,2.27,0,0,0,119.985,16.518Z" transform="translate(-34.284 -3.635)"/><path d="M129.223,19.058h-1.012l-.083-.584H128.1a1.735,1.735,0,0,1-1.48.7,1.528,1.528,0,0,1-1.157-.459,1.44,1.44,0,0,1-.4-1.032,1.575,1.575,0,0,1,.777-1.418,4.037,4.037,0,0,1,2.186-.48v-.095q0-1-1.053-1a2.355,2.355,0,0,0-1.321.375l-.229-.74a3.25,3.25,0,0,1,1.739-.438q1.987,0,1.989,2.1v1.867A7.873,7.873,0,0,0,129.223,19.058Zm-1.17-1.742v-.782q-1.864-.032-1.864,1.021a.766.766,0,0,0,.216.595.789.789,0,0,0,.551.2,1.137,1.137,0,0,0,.689-.234.959.959,0,0,0,.39-.6A.941.941,0,0,0,128.053,17.316Z" transform="translate(-36.902 -3.635)"/><path d="M138.018,18.129h-1l-.052-.814h-.032a1.684,1.684,0,0,1-1.628.929,1.906,1.906,0,0,1-1.522-.719,2.8,2.8,0,0,1-.6-1.867,2.938,2.938,0,0,1,.657-1.992,2.021,2.021,0,0,1,1.565-.71,1.518,1.518,0,0,1,1.427.688h.022V10.735h1.128v6.029Q137.979,17.5,138.018,18.129Zm-1.167-2.137v-.845a1.652,1.652,0,0,0-.032-.355,1.283,1.283,0,0,0-.407-.683,1.109,1.109,0,0,0-.754-.276,1.157,1.157,0,0,0-.992.5,2.147,2.147,0,0,0-.361,1.283,2,2,0,0,0,.346,1.22,1.16,1.16,0,0,0,.985.5,1.087,1.087,0,0,0,.891-.417A1.389,1.389,0,0,0,136.851,15.991Z" transform="translate(-39.297 -2.789)"/><path d="M151.63,16.481a2.781,2.781,0,0,1-.668,1.919,2.382,2.382,0,0,1-1.857.772,2.268,2.268,0,0,1-1.778-.741,2.7,2.7,0,0,1-.662-1.867,2.754,2.754,0,0,1,.683-1.929,2.368,2.368,0,0,1,1.842-.75,2.314,2.314,0,0,1,1.793.74A2.676,2.676,0,0,1,151.63,16.481Zm-1.168.037a2.293,2.293,0,0,0-.3-1.2,1.115,1.115,0,0,0-1.012-.606,1.133,1.133,0,0,0-1.033.606,2.32,2.32,0,0,0-.3,1.224,2.293,2.293,0,0,0,.3,1.2,1.137,1.137,0,0,0,1.023.606,1.125,1.125,0,0,0,1.011-.617A2.283,2.283,0,0,0,150.462,16.518Z" transform="translate(-43.277 -3.635)"/><path d="M160.439,19.056h-1.126v-2.9q0-1.342-1.023-1.342a1.014,1.014,0,0,0-.813.369,1.305,1.305,0,0,0-.312.869v3.006h-1.128V15.436q0-.668-.04-1.45h.99l.052.792h.032a1.639,1.639,0,0,1,.583-.612,1.91,1.91,0,0,1,1.023-.285,1.618,1.618,0,0,1,1.179.459,2.228,2.228,0,0,1,.584,1.679Z" transform="translate(-46.03 -3.635)"/><path d="M171.757,14.349h-1.241v2.462c0,.626.221.939.657.939a1.985,1.985,0,0,0,.5-.053l.029.855a2.532,2.532,0,0,1-.875.126,1.347,1.347,0,0,1-1.042-.406,1.987,1.987,0,0,1-.377-1.367V14.349h-.741V13.5h.741v-.929l1.1-.333V13.5h1.241v.845Z" transform="translate(-49.769 -3.193)"/><path d="M179.666,18.129h-1.128V15.247q0-1.363-1.021-1.363a1.075,1.075,0,0,0-1.075.79,1.4,1.4,0,0,0-.053.405v3.048h-1.126V10.735h1.126v3.055h.022a1.7,1.7,0,0,1,1.522-.833,1.571,1.571,0,0,1,1.159.459,2.309,2.309,0,0,1,.573,1.7Z" transform="translate(-51.726 -2.79)"/><path d="M188.347,16.28a2.732,2.732,0,0,1-.042.511h-3.38a1.476,1.476,0,0,0,.489,1.147,1.677,1.677,0,0,0,1.106.355,3.732,3.732,0,0,0,1.367-.24l.176.783a4.241,4.241,0,0,1-1.7.313,2.455,2.455,0,0,1-1.85-.693,2.553,2.553,0,0,1-.672-1.861,2.9,2.9,0,0,1,.626-1.908,2.155,2.155,0,0,1,1.772-.813,1.886,1.886,0,0,1,1.657.813A2.708,2.708,0,0,1,188.347,16.28Zm-1.076-.291a1.515,1.515,0,0,0-.218-.866.984.984,0,0,0-.9-.47,1.07,1.07,0,0,0-.9.459,1.708,1.708,0,0,0-.334.876Z" transform="translate(-54.254 -3.631)"/></g></g></svg>