<svg xmlns="http://www.w3.org/2000/svg" width="73.383" height="73.449" viewBox="0 0 73.383 73.449"><defs><style>.a{fill:#ffdb56;}.b{fill:#ff4a4a;}.c{fill:#ffbb24;}.d{fill:#e7343f;}.e{fill:#1ea4e9;}</style></defs><g transform="translate(-0.232)"><path class="a" d="M49.754,430.773c-6.171,0-12.73,2.042-12.73,5.826s6.559,5.826,12.73,5.826,12.73-2.042,12.73-5.826S55.926,430.773,49.754,430.773Z" transform="translate(-31.514 -368.976)"/><path class="b" d="M18.241,153.9A18.029,18.029,0,0,0,.232,171.911c0,6.165,2.933,12.794,8.717,19.7a62.086,62.086,0,0,0,8.632,8.491,1.077,1.077,0,0,0,1.318,0,62.086,62.086,0,0,0,8.632-8.491c5.784-6.908,8.717-13.537,8.717-19.7A18.029,18.029,0,0,0,18.241,153.9Zm6.753,18.009a6.753,6.753,0,1,1-6.753-6.753A6.753,6.753,0,0,1,24.994,171.911Z" transform="translate(0 -131.824)"/><path class="a" d="M360.374,213.945a20.347,20.347,0,0,0-13.479,0c-2.124.866-3.294,2.136-3.294,3.578s1.17,2.713,3.294,3.578a20.347,20.347,0,0,0,13.479,0c2.124-.865,3.294-2.137,3.294-3.578S362.5,214.81,360.374,213.945Z" transform="translate(-294.111 -182.269)"/><g transform="translate(5.51 33.909)"><path class="c" d="M49.754,466.49c-5.395,0-11.086-1.56-12.432-4.481a3.181,3.181,0,0,0-.3,1.345c0,3.784,6.559,5.826,12.73,5.826s12.73-2.042,12.73-5.826a3.182,3.182,0,0,0-.3-1.345C60.84,464.93,55.149,466.49,49.754,466.49Z" transform="translate(-37.024 -429.64)"/><path class="c" d="M360.375,238.6a20.347,20.347,0,0,1-13.479,0,5.709,5.709,0,0,1-2.927-2.233,2.7,2.7,0,0,0-.367,1.345c0,1.442,1.17,2.713,3.294,3.578a20.347,20.347,0,0,0,13.479,0c2.124-.865,3.294-2.137,3.294-3.578a2.706,2.706,0,0,0-.367-1.345A5.709,5.709,0,0,1,360.375,238.6Z" transform="translate(-299.622 -236.37)"/></g><path class="b" d="M329.416,0a14.106,14.106,0,0,0-14.09,14.09c0,4.8,2.274,9.947,6.758,15.3a48,48,0,0,0,6.673,6.563,1.077,1.077,0,0,0,1.318,0,47.994,47.994,0,0,0,6.673-6.563c4.484-5.356,6.758-10.5,6.758-15.3A14.107,14.107,0,0,0,329.416,0Zm5.19,14.09a5.19,5.19,0,1,1-5.19-5.19A5.19,5.19,0,0,1,334.607,14.09Z" transform="translate(-269.892 0)"/><g transform="translate(16.212 0)"><path class="d" d="M113.655,153.9a18.112,18.112,0,0,0-2.028.115,18.034,18.034,0,0,1,15.98,17.894c0,6.165-2.933,12.794-8.717,19.7a64.9,64.9,0,0,1-7.263,7.36c.8.691,1.311,1.086,1.369,1.131a1.077,1.077,0,0,0,1.318,0,62.086,62.086,0,0,0,8.632-8.491c5.784-6.908,8.717-13.537,8.717-19.7A18.029,18.029,0,0,0,113.655,153.9Z" transform="translate(-111.626 -131.824)"/><path class="d" d="M401.434,0A14.125,14.125,0,0,0,399.4.147,14.112,14.112,0,0,1,411.467,14.09c0,4.8-2.274,9.947-6.758,15.3a50.233,50.233,0,0,1-5.3,5.419c.8.7,1.317,1.1,1.369,1.144a1.077,1.077,0,0,0,1.318,0,47.994,47.994,0,0,0,6.673-6.563c4.484-5.356,6.758-10.5,6.758-15.3A14.106,14.106,0,0,0,401.434,0Z" transform="translate(-358.121 0)"/></g><path class="e" d="M235.8,272.906a1.077,1.077,0,0,1,0-2.154l1.423-.006h.005a1.077,1.077,0,0,1,0,2.154l-1.423.006Zm5.69-.026a1.077,1.077,0,0,1,0-2.154l1.423-.006h.005a1.077,1.077,0,0,1,0,2.154l-1.423.006Zm5.69-.026a1.077,1.077,0,0,1,0-2.154l1.422-.006h.005a1.077,1.077,0,0,1,0,2.154l-1.422.006Zm5.69-.026a1.077,1.077,0,0,1,0-2.154l1.423-.006h.005a1.077,1.077,0,0,1,0,2.154l-1.423.006Zm5.69-.026a1.077,1.077,0,0,1,0-2.154l1.423-.006h.005a1.077,1.077,0,0,1,0,2.154l-1.423.006Zm5.69-.026a1.077,1.077,0,0,1-.005-2.154h.2a8.125,8.125,0,0,0,1.074-.076,1.077,1.077,0,1,1,.295,2.134,10.311,10.311,0,0,1-1.359.1h-.206Zm5.358-1.623a1.077,1.077,0,0,1-.615-1.962,8.111,8.111,0,0,0,.972-.792,1.077,1.077,0,1,1,1.486,1.56,10.277,10.277,0,0,1-1.231,1A1.072,1.072,0,0,1,269.605,271.154Zm3.406-4.441A1.078,1.078,0,0,1,272,265.274a8.024,8.024,0,0,0,.327-1.209,1.077,1.077,0,0,1,2.117.4,10.192,10.192,0,0,1-.415,1.534A1.077,1.077,0,0,1,273.012,266.713Zm.174-5.595a1.077,1.077,0,0,1-1.035-.78,8,8,0,0,0-.439-1.173,1.077,1.077,0,0,1,1.952-.911,10.162,10.162,0,0,1,.557,1.49,1.078,1.078,0,0,1-1.036,1.375Zm-3.124-4.646a1.072,1.072,0,0,1-.667-.232,8.092,8.092,0,0,0-1.041-.7,1.077,1.077,0,1,1,1.057-1.877,10.282,10.282,0,0,1,1.319.884,1.077,1.077,0,0,1-.668,1.923Zm-5.243-1.952h-.048q-.181-.008-.363-.008H263.4a1.077,1.077,0,0,1,0-2.154h1.012c.152,0,.306,0,.458.01a1.077,1.077,0,0,1-.047,2.153Zm-5.691-.009h-1.422a1.077,1.077,0,1,1,0-2.154h1.423a1.077,1.077,0,1,1,0,2.154Zm-5.69,0h-1.423a1.077,1.077,0,1,1,0-2.154h1.423a1.077,1.077,0,1,1,0,2.154Zm-5.69,0h-1.423a1.077,1.077,0,0,1,0-2.154h1.423a1.077,1.077,0,1,1,0,2.154Zm-5.487-1.071a1.072,1.072,0,0,1-.574-.166,8.106,8.106,0,0,1-1.29-1.01,1.077,1.077,0,0,1,1.493-1.552,5.93,5.93,0,0,0,.946.741,1.077,1.077,0,0,1-.576,1.988Zm-3.13-4.563a1.077,1.077,0,0,1-1.056-.871,8.111,8.111,0,0,1-.149-1.547v-.085A1.077,1.077,0,0,1,239,245.308h.013a1.077,1.077,0,0,1,1.064,1.089v.06a5.951,5.951,0,0,0,.109,1.135,1.078,1.078,0,0,1-1.058,1.283Zm1.177-5.406a1.077,1.077,0,0,1-.874-1.705,8.1,8.1,0,0,1,1.086-1.227,1.077,1.077,0,1,1,1.461,1.583,5.946,5.946,0,0,0-.8.9A1.076,1.076,0,0,1,240.307,243.471Zm4.742-2.85a1.077,1.077,0,0,1-.141-2.145,8.151,8.151,0,0,1,1.07-.071h.492a1.077,1.077,0,1,1,0,2.154h-.492a5.989,5.989,0,0,0-.786.052A1.032,1.032,0,0,1,245.049,240.621Z" transform="translate(-200.848 -204.204)"/></g></svg>