<svg xmlns="http://www.w3.org/2000/svg" width="793.664" height="618.799" viewBox="0 0 793.664 618.799"><defs><style>.a{fill:#f65f4d;}.b{fill:#e1eff9;}.c{fill:#fff;}.d{fill:#004061;}</style></defs><g transform="translate(570.546 -19270.143)"><g transform="translate(-399.398 19418.848)"><path class="a" d="M4188.8,1694.695l284.4-112.8a111.415,111.415,0,0,0,70.329-104.984l-.233-18.108-298.8,118.522a88.219,88.219,0,0,0-55.695,82Z" transform="translate(-4188.799 -1458.805)"/></g><g transform="translate(-570.546 19516.625)"><path class="b" d="M4133.3,1593.813l124.546-49.4a48.791,48.791,0,0,0,30.8-45.974l-.1-7.932-130.851,51.9a38.634,38.634,0,0,0-24.391,35.911Z" transform="translate(-4133.301 -1490.511)"/></g><g transform="translate(-436.15 19270.143)"><path class="c" d="M4297.405,1524.493a19.349,19.349,0,0,0-14.275-6.46c-4.946.058-9.774,2.226-13.855,5.526-12.579,10.159-17.415,30.777-13.2,48.077l41.158,1.943a14.563,14.563,0,0,0,1.2-2.637q.6-1.369,1.146-2.763,1.119-2.821,2.064-5.735c1.22-3.772,2.107-7.642,3.049-11.518a30.093,30.093,0,0,0,1.269-7.685,23.068,23.068,0,0,0-2.244-8.274A35.876,35.876,0,0,0,4297.405,1524.493Z" transform="translate(-4014.963 -1186.677)"/><path class="b" d="M4322.993,1545.209c-4.527-2.143-9.524-4.341-14.385-3.115-5.113,1.29-8.525,5.972-11.49,10.332-3.408,5-6.978,10.981-5.109,16.742,1.7,5.27,7.271,8.1,12.322,10.38,6.754,3.047,13.587,6.122,20.867,7.485s15.171.878,21.563-2.865a27.659,27.659,0,0,0,8.557-8.142c2.034-2.914,4.565-6.822,5.084-10.407a3.192,3.192,0,0,0-1.58-3.393,57.634,57.634,0,0,0-6.7-3.222l-13.733-6.508Z" transform="translate(-3938.044 -1137.27)"/><g transform="translate(356.841 417.404)"><path class="d" d="M4394.435,1549.315c5.068-1.545,10.166-3.419,15.469-3.38s10.99,2.495,13.11,7.355c-9.787,21.5-32.127,33.94-53.05,44.918l-30.518,16.018c-2.354,1.237-4.889,2.51-7.537,2.221-4.872-.531-7.576-5.891-8.7-10.661s-1.842-10.177-5.679-13.23c-2.342-1.862-5.415-2.451-8.2-3.556s-5.606-3.173-5.913-6.148c-.319-3.082,2.135-5.678,4.4-7.793q8.112-7.578,16.226-15.157c3.225-3.012,6.559-6.125,11.2-6.3,4.922-.184,9.968,1.006,14.894,1.237a132.121,132.121,0,0,0,21.058-.709A130.66,130.66,0,0,0,4394.435,1549.315Z" transform="translate(-4270.097 -1545.935)"/><path class="d" d="M4340.057,1565.948c-6.036.158-10.37,2.409-14.9,6.3-6.866,5.884-12.935,12.622-19.806,18.521a.739.739,0,0,0,.941,1.137c6.132-4.335,12.521-8.146,18.859-12.153,4.791-3.031,9.556-7.536,15.133-8.925C4342.8,1570.2,4343.025,1565.871,4340.057,1565.948Z" transform="translate(-4266.576 -1504.233)"/><path class="d" d="M4336.4,1574.9a4.624,4.624,0,0,0-2.819-.731,12.547,12.547,0,0,0,.951-11.462c-.934-2.313-4.362-1.071-4.04,1.261,1.318,9.545-8.779,15.083-14.892,20.4-5.863,5.1-9.512,11.358-17.194,14.139-.2.074-.057.36.14.3,9.4-2.992,18.293-10,26.268-15.7a35.947,35.947,0,0,0,6.737-6.057c1.463-.622,3.02-.851,4.146.638.917,1.219.914,2.791,2.313,3.6a.837.837,0,0,0,1.246-.4C4340.156,1578.828,4338.1,1575.988,4336.4,1574.9Z" transform="translate(-4280.68 -1513.561)"/><path class="d" d="M4318.735,1574.007c-9.411,4.915-18.456,10.2-25.731,18.019-.986,1.063-.072,3.118,1.474,2.346,9.452-4.727,17.56-11.3,25.9-17.748A1.566,1.566,0,0,0,4318.735,1574.007Z" transform="translate(-4292.594 -1487.791)"/><path class="d" d="M4308.371,1578.268a13.831,13.831,0,0,0-6.063,4.983,7.114,7.114,0,0,1-2.156,2.582c-.641.357-.166,1.4.483,1.044a16.821,16.821,0,0,0,4.444-2.843c1.358-1.441,2.282-3.01,4.181-3.828C4310.563,1579.65,4309.639,1577.869,4308.371,1578.268Z" transform="translate(-4277.479 -1478.678)"/></g><path class="d" d="M4323.363,1539.974a280.576,280.576,0,0,0-25.382-13.232c-3.4-1.558-7.012-3.082-10.737-2.745-7.007.635-11.645,7.336-15.264,13.372-2.692,4.49-5.418,9.051-6.811,14.1s-1.308,10.735,1.4,15.215c2.218,3.657,5.9,6.131,9.473,8.487,17.9,11.808,35.845,23.641,54.9,33.487,4.872,2.517,10.885,4.883,15.574,2.042,3.412-2.066,4.836-6.18,6.637-9.739a36.471,36.471,0,0,1,11.147-13c2.271-1.644,5.158-2.732,7.037-4.852,2.042-2.3,1.025-4.413-.846-6.4a181.579,181.579,0,0,0-13.858-13.206c-4.851-4.163-9.908-8.09-15.116-11.8s-10.583-7.2-16.069-10.492C4324.752,1540.8,4324.061,1540.384,4323.363,1539.974Z" transform="translate(-3994.757 -1174.345)"/><path class="b" d="M4275.175,1502.714c-5.8-2.917-11.805-5.693-18.232-6.667s-13.415.055-18.5,4.111c-7.211,5.757-8.931,15.847-10.137,25-1.106,8.367-2.213,16.78-1.844,25.207a73.627,73.627,0,0,0,30.381,55.917c9.7,6.907,21.032,11.346,32.684,13.84a61.351,61.351,0,0,0,19.406,1.469c-2.875-1.04-4.771-3.932-5.4-6.923a23.861,23.861,0,0,1,.334-9.107c2.178-12.24,6.249-24.458,14.128-34.073a43.038,43.038,0,0,1,18.654-13.353,35.643,35.643,0,0,1,5.529-1.474c1.789-.321,3.9-.126,5.606-.724.6-.21,1.542-.667,1.472-1.438s-1.417-1.6-1.947-2.087q-2.4-2.187-4.834-4.33-9.782-8.581-20.245-16.351-10.485-7.784-21.577-14.7-11.043-6.887-22.625-12.857Q4276.605,1503.434,4275.175,1502.714Z" transform="translate(-4073.708 -1233.204)"/><path class="b" d="M4288.411,1549.144c-10.922-3.556-20.941-9.375-31.2-14.559-3.242-1.637-7.378-3.151-10.258-.937a9.948,9.948,0,0,0-2.438,3.322l-17.727,32.972a38.775,38.775,0,0,1,49.981,17.5,22.606,22.606,0,0,0,2.977,4.935,5.535,5.535,0,0,0,5.139,1.983,7.9,7.9,0,0,0,3.585-2.516c3.952-4.121,7.89-8.25,11.761-12.444q5.836-6.318,11.517-12.774c2.618-2.969,6.374-6.2,4.75-10.592a5.862,5.862,0,0,0-3.167-3.371c-2.017-.857-4.355-.333-6.479-.342a59.644,59.644,0,0,1-16.457-2.562C4289.734,1549.567,4289.069,1549.36,4288.411,1549.144Z" transform="translate(-4072.877 -1156.448)"/><path class="c" d="M4226.68,1563.4a69.92,69.92,0,0,1,35.346,14.506c2.43,1.919,4.9,4.08,7.955,4.586,3.464.576,6.986-1.178,9.42-3.713s3.974-5.772,5.476-8.949a32.354,32.354,0,0,0-39.209-24.492,38.672,38.672,0,0,0-8.969,3.51c-1.8.925-3.387,1.661-4.478,3.447C4230.091,1555.79,4228.5,1559.719,4226.68,1563.4Z" transform="translate(-4073.107 -1131.612)"/><path class="d" d="M4299.055,1563.166c4.243,2.449,8.886,6.381,7.964,11.193-.393,2.075-1.789,3.792-3.14,5.414L4275.6,1613.8c-4.81,5.782-9.624,11.577-14.954,16.882-9.877,9.833-21.4,17.882-31.368,27.631L4209.459,1631c-1.5-2.066-3.057-4.274-3.285-6.818s.915-4.987,2.22-7.174c8.431-14.108,24.052-22.031,35.969-33.348a80.389,80.389,0,0,0,10.158-11.737,128.378,128.378,0,0,0,7.69-13.242c1.518-2.8,3.51-5.777,6.843-6.463,4.253-.88,9.091,1.449,12.962,2.9a114.66,114.66,0,0,1,15.223,7.02C4297.845,1562.476,4298.454,1562.818,4299.055,1563.166Z" transform="translate(-4115.897 -1115.844)"/><path class="b" d="M4249.451,1601.288c1.22,1.829,2.5,4.024,1.765,6.1a7.131,7.131,0,0,1-2.74,3.05l-42.577,31.973c-2.126-7.984-12.449-12.2-13.335-20.411-.547-5.086,2.824-9.681,6.105-13.6q9.765-11.676,20.648-22.348,2.684-2.634,5.436-5.206,1.4-1.314,2.824-2.606a7.68,7.68,0,0,1,2.717-2.033c2.016-.571,3.439,1.585,4.386,3q2.29,3.412,4.574,6.837Z" transform="translate(-4144.325 -1065.652)"/><path class="d" d="M4232.777,1610.111c1.568,1.351,3.479,2.9,3.29,4.959a5.88,5.88,0,0,1-1.967,3.261l-30.786,32.052c-2.256,2.347-4.689,4.8-7.851,5.569a12.145,12.145,0,0,1-8.78-1.739,19.75,19.75,0,0,1-3.168-31.834c2.612-2.322,5.967-4.105,7.369-7.305.843-1.937.836-4.121,1.221-6.2,1.158-6.269,5.925-11.4,11.469-14.543a45.016,45.016,0,0,1,9.44-3.864c2.17-.645,4.567-1.218,6.773-.388,4.629,1.739,4.922,8.03,6.771,11.86A25.419,25.419,0,0,0,4232.777,1610.111Z" transform="translate(-4176.882 -1037.402)"/><path class="d" d="M4377.061,1639.429c5.182,4.042,9.979,8.7,15.815,11.709s13.183,4.147,18.88.869c7.112-4.1,9.2-13.211,10.6-21.3l18.34-106.1c1.821-10.531,4.145-21.972,12.329-28.846,12.288-10.312,30.566-5.273,46.605-5.511a66.108,66.108,0,0,0,47.816-21.92c3.747-4.221,7.024-9.134,7.938-14.7s-1.029-11.885-5.808-14.889c-8.007-5.036-18.047,1.063-26.22,5.831a97.817,97.817,0,0,1-87.786,4.672c-5.761-2.581-11.345-5.757-17.527-7.04s-13.313-.278-17.529,4.416c-3.331,3.706-4.236,8.9-5.873,13.609-5.691,16.338-22.382,28.18-39.683,28.15-6.976-.013-14.182-1.928-19.388-6.575s-7.967-12.332-5.643-18.913a83.209,83.209,0,0,0-43.8,24.087c-6.957,7.315-12.56,15.888-20.024,22.686a60.068,60.068,0,0,1-42.587,15.42c-6.263-.275-12.56-1.542-18.75-.549s-12.51,5.038-13.575,11.215c-.862,5.027,2.06,10.131,6.163,13.162s9.2,4.361,14.206,5.326a131.523,131.523,0,0,0,86.575-13.288c.208-.111,5.662,12.761,6.108,13.948a146.493,146.493,0,0,1,9.22,44.981,143.548,143.548,0,0,1-.121,15.327c-.091,1.486-.677,4.037.812,5.079,1.446,1.011,4.6.2,6.28.178a91.035,91.035,0,0,1,28.265,4.17,90.079,90.079,0,0,1,25.508,12.662Q4375.654,1638.329,4377.061,1639.429Z" transform="translate(-4147.392 -1355.855)"/><path class="c" d="M4257.111,1515.429a45.565,45.565,0,0,0,48.107-40.084c1.042-8.749-.465-17.584-2.237-26.213-1.82-8.851-4.3-18.281-11.21-24.1-7.3-6.145-18.4-6.62-26.942-2.358s-14.577,12.619-17.489,21.71c-1.441,4.512-2.384,9.561-5.934,12.694-1.356,1.19-3.016,2.026-4.2,3.393-2.862,3.321-1.844,8.535.429,12.289,2.2,3.629,5.38,6.618,7.223,10.479a12.658,12.658,0,0,1-.1,10.944c-1.12,2.214-2.921,3.987-3.426,6.492a11.277,11.277,0,0,0,3.424,10.493C4248.11,1514.147,4252.756,1515.154,4257.111,1515.429Z" transform="translate(-4054.813 -1391.216)"/><path class="d" d="M4309.76,1432.179c-.639-5.061-1.406-10.424-4.675-14.34-3.526-4.222-9.246-5.875-14.69-6.634a68.594,68.594,0,0,0-54.025,16.211c-3.538,3.112-7.011,7.571-5.664,12.086.99,3.318,4.3,5.427,5.768,8.564,2.768,5.9-1.789,13.057.133,19.289,1.016,3.306,3.7,5.789,6.263,8.107l9.537,8.61a5.488,5.488,0,0,0,3.187,1.77c1.824.089,3.276-1.712,3.549-3.519a14.621,14.621,0,0,0-.719-5.4c-1.73-7.324-.665-15.641,4.311-21.287,3-3.4,7.11-5.576,11.131-7.673l14.668-7.654c2.487-1.3,5.291-2.637,7.99-1.863,5.013,1.434,5.649,7.917,8.872,11.244a3.71,3.71,0,0,0,5.046.453c2.037-1.635,1.008-4.613.732-6.794Z" transform="translate(-4065.341 -1410.583)"/><path class="c" d="M4299.6,1452.642a23.938,23.938,0,0,0,1.272,4.8l1.982,5.807c.844,2.482,1.811,5.128,3.948,6.649s5.8,1.1,6.616-1.394c.517-1.57-.249-3.235-.777-4.8s-.705-3.58.591-4.61c1.346-1.07,3.293-.361,4.933.157s3.948.481,4.495-1.15c.514-1.532-1.013-3.472.04-4.7.707-.826,2.106-.564,2.923.155a21.736,21.736,0,0,1,1.987,2.574c2.594,3.081,8.057,2.4,10.487-.811s2.064-7.944-.09-11.346-5.767-5.634-9.51-7.1a27.251,27.251,0,0,0-16.343-1.363,15.361,15.361,0,0,0-6.763,3.229c-1.337,1.277-2.306,3.247-3.343,4.765A13.575,13.575,0,0,0,4299.6,1452.642Z" transform="translate(-3921.322 -1360.106)"/><path class="c" d="M4206.769,1508.663a15.7,15.7,0,0,0,7.211-10.013c1.143-4.734.367-9.708-.685-14.463-1.637-7.417-3.937-14.667-6.233-21.9a11.739,11.739,0,0,0-1.851-3.994,3.985,3.985,0,0,0-3.9-1.551c-1.7.445-2.646,2.317-2.876,4.062s.038,3.544-.307,5.273c-.71,3.574-3.774,6.1-6.136,8.876a26.812,26.812,0,0,0-4.7,25.917c1.069,2.975,2.9,6.658,5.728,8.351a6.52,6.52,0,0,0,2.948.781c1.5.114,3.035.274,4.534.287A12.6,12.6,0,0,0,4206.769,1508.663Z" transform="translate(-4158.281 -1314.601)"/><path class="a" d="M4255.841,1472.08a3.321,3.321,0,0,0-2.866-1.384,8.606,8.606,0,0,0-3.447.814c-1.611.7-3.475,1.73-5.17.7-.848-.515-2.321,1.619-1.506,2.149,2.437,1.589,4.864-.235,7.263-.892.991-.268,2.392-.474,3.245.259,1.215,1.052.356,3.7.2,5.085-.388,3.469-.367,7.025-.531,10.51l-.262,5.511a14.224,14.224,0,0,0,.205,5c.334,1.021,1.422.055,2.111-.808-.356.567-.382.653-.036.213a2.829,2.829,0,0,0,.446-.669c.031-.065.038-.145.065-.21a1.417,1.417,0,0,0,.119-.25l-.084.136a6.535,6.535,0,0,0,.355-1.166,25.958,25.958,0,0,0,.226-2.93c.1-1.989.11-3.984.164-5.976.1-3.818.422-7.71.241-11.528C4256.511,1475.183,4256.689,1473.357,4255.841,1472.08Z" transform="translate(-4039.905 -1285.317)"/><path class="a" d="M4254.473,1481.827a6.874,6.874,0,0,0-1.213,1.265,17.527,17.527,0,0,1,1.268-7.593,4.787,4.787,0,0,1,3.776-3.006c1.891-.247,3.166.94,4.92,1.2.886.126,1.624-1.209,1.579-1.949-.153-2.646-3.088-3.26-5.32-2.982a9.693,9.693,0,0,0-6.458,4.456c-3.726,5.461-3.33,12.714-2.737,18.993.255,2.735,1.081,5.865,3.617,7.367,2.563,1.514,5.5.414,7.464-1.56,3.807-3.824,4.884-12.163.531-16.023A5.814,5.814,0,0,0,4254.473,1481.827Zm6.947,10.183c-.153,1.564-.457,3.525-2.163,4.068s-3.411-.648-4.3-2.023a11.814,11.814,0,0,1-1.408-5.771c.381-.413.676-1.057.524-1.418a2.117,2.117,0,0,1,2.089-3.145,5.866,5.866,0,0,1,4.245,2.8A8.943,8.943,0,0,1,4261.42,1492.01Z" transform="translate(-4024.709 -1289.482)"/><path class="a" d="M4243.526,1468.151a7.863,7.863,0,0,0-.884-.941c-.554-.549-1.113-1.1-1.67-1.644q-1.667-1.646-3.333-3.29c-.158-.161-.512-.046-.674.028a2.072,2.072,0,0,0-.743.681c-.289.435-.622,1.135-.185,1.576q1.626,1.651,3.256,3.3c.532.54,1.065,1.083,1.6,1.625a8.218,8.218,0,0,0,.812.8c.394.3.856.16,1.31.092a1.02,1.02,0,0,0,.674-.839C4243.693,1469.1,4243.8,1468.518,4243.526,1468.151Z" transform="translate(-4054.047 -1303.033)"/><path class="a" d="M4240.2,1466.5a2.133,2.133,0,0,0-.653-.626c-.4-.314-.8-.637-1.2-.949s-.812-.57-1.215-.854a2.962,2.962,0,0,0-.793-.352c-.117-.037-.231-.089-.349-.116a.806.806,0,0,0-.634.173l-.014,0c-.021,0-.036.037-.061.043-.043.031-.086.052-.131.083l.065-.034a.968.968,0,0,0-.519.761l.014-.1a1.138,1.138,0,0,0-.072.86,2.84,2.84,0,0,0,.174.3,3.222,3.222,0,0,0,.448.685c.3.312.62.6.931.907s.632.58.953.864c.169.147.338.292.5.441a2.438,2.438,0,0,0,.525.4,1.018,1.018,0,0,0,1.086-.225,2.811,2.811,0,0,0,.845-1.1A1.478,1.478,0,0,0,4240.2,1466.5Z" transform="translate(-4056.644 -1300.129)"/><path class="a" d="M4236.462,1467.357l-.076.644a2.046,2.046,0,0,0,.084-.786.588.588,0,0,0-.185-.389c-.1-.108-.184-.216-.275-.327-.178-.2-.352-.41-.526-.614-.358-.426-.715-.848-1.075-1.271a.392.392,0,0,0-.279-.232.491.491,0,0,0-.39-.031,1.908,1.908,0,0,0-.908.58,2.837,2.837,0,0,0-.664,1.107l-.079.358a1.018,1.018,0,0,0,.079.579c.355.428.705.861,1.059,1.289.168.21.343.417.513.626l.272.333a2.04,2.04,0,0,0,.266.314.731.731,0,0,0,.61.065l-.257.012a1.565,1.565,0,0,1,.348.074l.219-.013.24-.086a1.86,1.86,0,0,0,.6-.515,2.389,2.389,0,0,0,.36-.6,1.326,1.326,0,0,0,.123-.693A2.445,2.445,0,0,1,4236.462,1467.357Z" transform="translate(-4061.862 -1298.59)"/><path class="a" d="M4272.868,1456.584a.5.5,0,0,0-.629-.444l-7.609,1.255a1.957,1.957,0,0,0-1.263,1.353c-.136.438-.065,1,.481.956-.076.081-.159.158-.226.241a5.716,5.716,0,0,0-.657,6.405,5.054,5.054,0,0,0,4.662,2.449c2.265-.161,4.129-2.08,5.025-4.044C4273.868,1462.095,4273.442,1459.347,4272.868,1456.584Z" transform="translate(-3998.955 -1315.672)"/><g transform="translate(158.201 278.615)"><path class="d" d="M4311.6,1551.475c-9.987-13.06-25.318-18.879-39.612-25.913-7.257-3.571-14.354-7.553-20.458-12.918-6.018-5.292-11.943-12.092-20.665-11.7-.85.041-2.065,2.193-1.1,2.2,8.6.034,14.433,7.262,20.382,12.5s12.85,9.153,19.9,12.694c13.925,7,29.327,12.915,39.681,25.112C4310.492,1554.346,4312.184,1552.24,4311.6,1551.475Z" transform="translate(-4225.625 -1500.93)"/><path class="d" d="M4292.113,1542.984c-7.437-4.58-15.59-7.8-23.438-11.567-14.878-7.139-27.193-17.378-38.7-29.069-.354-.361-1.181.759-.92,1.129,9.175,13.035,22.387,22.87,36.6,29.84,7.672,3.763,15.7,6.831,23.115,11.117a63.453,63.453,0,0,1,9.395,6.516c3.193,2.717,5.675,6.02,8.6,8.98.477.484,1.254-.915,1.089-1.335C4305.119,1551.767,4298.169,1546.712,4292.113,1542.984Z" transform="translate(-4226.462 -1498.122)"/><path class="d" d="M4306.166,1554.451c-12.806-7.848-25.886-15.234-38.665-23.129s-25.021-16.689-37.077-25.611c-1.01-.746-2.991,2.051-1.947,2.779,12.355,8.573,25.032,16.622,37.647,24.8a404.7,404.7,0,0,0,38.88,22.82C4305.682,1556.449,4306.807,1554.843,4306.166,1554.451Z" transform="translate(-4228.181 -1491.228)"/></g><path class="c" d="M4254.343,1565.506c-.729-2.033-3.768-3.214-5.551-4.127a69.838,69.838,0,0,0-20.482-6.726c-.893-.147-2.153,2.058-1.12,2.243a67.82,67.82,0,0,1,13.766,3.963q3.157,1.29,6.173,2.895c1.072.571,2.1,1.228,3.171,1.8a6.869,6.869,0,0,0,3.228,1.122A.982.982,0,0,0,4254.343,1565.506Z" transform="translate(-4072.856 -1110.379)"/><path class="c" d="M4282.328,1526.986c-.352-.537-1.034-.034-1.344.271a73.6,73.6,0,0,0-8.557,10.244c-1.236,1.789-2.389,3.639-3.467,5.53a31.579,31.579,0,0,0-3.011,6.108c-.426,1.376,1.051,1.064,1.549.232,1.087-1.807,1.9-3.784,2.923-5.627s2.122-3.609,3.3-5.335a69.16,69.16,0,0,1,8.04-9.68C4282.116,1528.373,4282.663,1527.495,4282.328,1526.986Z" transform="translate(-3991.438 -1168.51)"/><g transform="translate(428.551 439.511)"><path class="a" d="M4321.844,1553.117a2.463,2.463,0,0,0-1.574,1.684q-2.174,7.627-4.35,15.252c-.309,1.086.41,1.548,1.315.923a28.352,28.352,0,0,0,2.5-2.184,1.663,1.663,0,0,0,.67-1.212c-.028-.394-.3-.539-.669-.367-.322.152-.649.3-.972.447q1.874-6.675,3.743-13.347C4322.665,1553.761,4322.6,1552.993,4321.844,1553.117Z" transform="translate(-4315.848 -1553.104)"/><path class="a" d="M4323.012,1553.588c-.622.083-1.217.906-1.367,1.461q-1.023,3.751-2.051,7.5-.512,1.873-1.022,3.747c-.176.647-.353,1.3-.48,1.955-.09.463-.221,1.113.253,1.412.34.216.743-.135.974-.348,1.022-.944,1.251-2.483,1.57-3.775.3-1.2.595-2.4.893-3.592l1.812-7.322C4323.714,1554.137,4323.676,1553.5,4323.012,1553.588Z" transform="translate(-4311.351 -1552.113)"/><path class="a" d="M4325.453,1553.6a25.317,25.317,0,0,0-3.885,8.28,26.31,26.31,0,0,0-.908,4.49q-.119,1.105-.143,2.22a5.581,5.581,0,0,0,.036,1.135,6.536,6.536,0,0,0,.383.947c.148.429.775.117.98-.034a2.167,2.167,0,0,0,.807-1.337,13.4,13.4,0,0,0,.305-2.107c.01-.645.045-1.289.1-1.933a27.489,27.489,0,0,1,3.249-11.306C4326.82,1553.017,4325.959,1552.924,4325.453,1553.6Z" transform="translate(-4306.143 -1552.984)"/></g><g transform="translate(429.138 228.648)"><path class="b" d="M4446.126,1555.076c-2.879-.99-5.8-1.847-7.158-3.784-1.081-1.542-1.1-8.33-1.654-9.822-3.107-8.3-9.3-7.4-2.785-19.931a13.651,13.651,0,0,0-3.27-12.3c7.02-6.7,14.063-13.35,20.838-20.172,1.905-1.924.052-5.19-2.467-4.138-14.916,6.233-25.765,19.025-37.465,30.157-11.245,10.695-22.962,18.272-30.361,32.59-10.725,20.76-17.65,37.542-37.682,49.8-12.331,7.542-21.072,20.831-27.915,33.783-.642,1.218.677,2.8,1.813,1.768a149.154,149.154,0,0,0,12.781-13.717c8.329-9.706,16.375-13.952,26.132-21.46,10.689-8.228,19-20.44,25.83-32.217a158.406,158.406,0,0,1,11.491-17.019,45.729,45.729,0,0,1,8.311-3.981,5.1,5.1,0,0,0,2.44-.068l8.341,3.177c3.135,6.322-2.914,11.292-6.945,14.826-4.436,3.886-8.913,6-12.081,11.29-4.832,8.058-7.39,15.176-13.427,22.519-3.543,4.314-6.6,8.252-8.457,13.59-.327.931.872,1.952,1.6,1.181,7.709-8.219,17.578-14.824,23.653-24.542.665-1.066,1.312-2.029,1.958-3.024,9.037-9.187,19.278-16.421,32.255-14.152,7.009,1.227,14.988,6.707,20.676-.851C4458.752,1560.38,4453.818,1556.606,4446.126,1555.076Z" transform="translate(-4316.039 -1484.727)"/><path class="b" d="M4427.835,1512.782a143.016,143.016,0,0,1-18.711,15.154,50,50,0,0,1-7.7,4.2,1.388,1.388,0,0,0,0-.191c-.239-1.443-1.577-2.982-3.058-2.939a23.428,23.428,0,0,1-7.486-.647,2.3,2.3,0,0,0-1.943.3c-4.306-2.359-9.35-3.83-7.787-8.964.214-.7-.356-1.638-1.125-1.407-4.014,1.19-4.095,5.479-2.1,8.882,1.389,2.368,3.659,3.815,5.945,5.058,2.472,1.342,5,1.881,5.033,5.446,0,.019-.007.037-.007.059-.795.417-1.586.842-2.358,1.311-12.019,7.244-22.3,19.842-30.7,31.261-.705.962.608,2.192,1.475,1.437,13.73-11.971,26.174-22.077,42.769-29.42,12.057-5.335,26.02-12.286,32.622-24.8C4434.407,1514.312,4430.83,1509.865,4427.835,1512.782Z" transform="translate(-4233.497 -1428.242)"/><path class="b" d="M4376.02,1526.42c-6.977,3.041-10.015,9.11-14.384,15.167-4.922,6.837-12.376,10.775-16.525,18.232a1.03,1.03,0,0,0,1.657,1.224c4.771-6.029,11.413-9.924,16.392-15.7,4.755-5.514,8.191-12.492,14.256-16.579C4378.724,1527.881,4377.341,1525.843,4376.02,1526.42Z" transform="translate(-4255.799 -1398.058)"/><path class="b" d="M4358.323,1517.333c-5.248,5.829-10.481,11.423-14.6,18.216a1.443,1.443,0,0,0,2.042,1.986c6.1-4.866,10.979-10.809,16.077-16.782C4363.638,1518.643,4360.195,1515.251,4358.323,1517.333Z" transform="translate(-4258.851 -1418.138)"/></g><g transform="translate(544.091 214.956)"><ellipse class="c" cx="57.437" cy="57.437" rx="57.437" ry="57.437" transform="translate(0.303)"/><path class="a" d="M4396.984,1489.336a71.608,71.608,0,0,0-35.984,18.94,83.6,83.6,0,0,1,4.309-21.569,8.366,8.366,0,0,1,1.077-2.282c1.3-1.678,3.581-2.153,5.7-2.279,8.392-.539,16.786,2.217,23.975,6.587C4396.383,1488.925,4396.666,1489.113,4396.984,1489.336Z" transform="translate(-4337.297 -1476.552)"/><path class="a" d="M4400.174,1520.69a81.886,81.886,0,0,1-8.271-7.567c-2.847,3.45-5.887,6.713-8.739,10.2a3.361,3.361,0,0,0-.478.82c-1.449-.287-2.887-.626-4.328-1-2.614-.672-5.049-1.81-7.6-2.6a19.993,19.993,0,0,1-6.863-4.354,57.688,57.688,0,0,1-5.8-6.337c-.186-.226-.6.29-.464.49a32.1,32.1,0,0,0,8.217,7.876,35.029,35.029,0,0,1-8.541-7.411c-.067-.081-.217.108-.169.176a41.99,41.99,0,0,0,10.923,10.43,32.628,32.628,0,0,0,14.378,4.737.48.48,0,0,0,.241-.1,3.845,3.845,0,0,0,1.53,1.807c1.963,1.3,4.307,1.427,6.587,1.554a76.165,76.165,0,0,0,14.19-.571c2.376-.349,4.751-.793,7.1-1.363A38.464,38.464,0,0,1,4400.174,1520.69Z" transform="translate(-4345.366 -1418.81)"/><path class="a" d="M4382.8,1531.575c-.416.54-.86,1.045-1.3,1.555a82.646,82.646,0,0,1-19.381-32.942c13.682,1.171,27.428,1.838,41.146,2.06-.792,1.391-1.646,2.785-2.505,4.147-2.754,4.37-5.6,8.647-8.617,12.829C4389.171,1523.437,4386.032,1527.554,4382.8,1531.575Z" transform="translate(-4334.964 -1438.817)"/><path class="a" d="M4408.465,1486.845c-.8-1.427-2.328-2.954-4.071-3a3.653,3.653,0,0,0-3.165,1.733,70.259,70.259,0,0,0-28.561.071c6.78,4.308,12.541,10.105,17.834,16.187,1.9,2.187,3.7,4.4,5.447,6.652,3.073-6.84,5.665-14.047,5.665-21.486a1.394,1.394,0,0,0,.383-.582l.014.031c.086.037.1.148.16.222.1.111.153.111.3.138.259.056.522.094.784.139l3,.527a11.737,11.737,0,0,1,1.558.29C4408.175,1487.882,4408.627,1487.132,4408.465,1486.845Z" transform="translate(-4312.983 -1472.87)"/><path class="a" d="M4406.119,1510.335a72.082,72.082,0,0,1-10.075,11.121c-3.864,3.2-8.553,5.637-13.56,5.92a20.3,20.3,0,0,1-7.537-1.045c2.284-.536,4.56-1.171,6.778-1.93a72.189,72.189,0,0,0,12.958-5.863,69.989,69.989,0,0,0,5.953-3.83c.95-.7,1.9-1.394,2.816-2.122A15.182,15.182,0,0,0,4406.119,1510.335Z" transform="translate(-4308.232 -1417.672)"/><path class="a" d="M4405.281,1544.677c-.2.817-.433,1.631-.691,2.436a7.215,7.215,0,0,1-.845,2.39,61.08,61.08,0,0,0,17.566-34.909,29.117,29.117,0,0,1-11.465,2.52c-1.1.015-3.433-.268-4.893.308a11.706,11.706,0,0,1-1.217-1.209c.608-2.183-.52-4.884-1.766-6.988a160.864,160.864,0,0,0-11.845-17.386c-.251.506-.476.98-.7,1.486-.5,1.141-1.044,2.283-1.582,3.423-2.218,4.653-4.56,9.248-7.064,13.745-1.679,3.074-3.45,6.146-5.32,9.156q10.832.189,21.634-.065a12.007,12.007,0,0,0,4.127-.681c.195.04.4.083.595.124.634.13,1.277.244,1.92.364a2.15,2.15,0,0,0-.009.234c.267,1.6,1.072,3.188,1.477,4.774a41.932,41.932,0,0,1,1,15.194A41.451,41.451,0,0,1,4405.281,1544.677Z" transform="translate(-4307.163 -1456.217)"/><path class="a" d="M4359.666,1518.094c6.928.833,13.841,1.569,20.8,2.128-.124-.349-.252-.728-.348-1.076a82.21,82.21,0,0,1-3.105-28.572l-.061.064c-7.59,7.5-13.395,16.647-18.31,26.157l-.167-.019a3.393,3.393,0,0,0,.324-.7c.008-.031-.028-.013-.033.006a3.3,3.3,0,0,1-.309.691,7.8,7.8,0,0,0-1.725-.08,3.207,3.207,0,0,0-2.73,2.19,10.91,10.91,0,0,0-.391,2.171q-.152,1.23-.236,2.463a35.04,35.04,0,0,0,.052,4.95c.014.149.11.186.2.222a1.176,1.176,0,0,0,.072,1.024.27.27,0,0,0,.362.037c.027.164.021.33.056.493.088.395.469.3.724.114a1.342,1.342,0,0,0,.559-1.1,14.772,14.772,0,0,1-.024-2.2c.143-.431.284-.86.422-1.292.444-1.366.926-2.714,1.492-4.037.529-1.224,1.126-2.421,1.762-3.593A5.166,5.166,0,0,0,4359.666,1518.094Z" transform="translate(-4353.314 -1458.851)"/></g></g></g></svg>