<svg xmlns="http://www.w3.org/2000/svg" width="153" height="166" viewBox="0 0 153 166"><defs><style>.a{fill:#ff7152;}.a,.b,.c{font-size:22px;font-family:Roboto-Regular, Roboto;}.b{fill:#e5e5e5;}.c{fill:#6246e5;}</style></defs><g transform="translate(-1229 -966)"><text class="a" transform="translate(1229 966)"><tspan x="0" y="20">+</tspan></text><text class="b" transform="translate(1229 1001)"><tspan x="0" y="20">+</tspan></text><text class="b" transform="translate(1229 1024)"><tspan x="0" y="20">+</tspan></text><text class="b" transform="translate(1264 966)"><tspan x="0" y="20">+</tspan></text><text class="b" transform="translate(1264 1001)"><tspan x="0" y="20">+</tspan></text><text class="b" transform="translate(1264 1024)"><tspan x="0" y="20">+</tspan></text><text class="b" transform="translate(1264 1071)"><tspan x="0" y="20">+</tspan></text><text class="b" transform="translate(1299 966)"><tspan x="0" y="20">+</tspan></text><text class="b" transform="translate(1299 1001)"><tspan x="0" y="20">+</tspan></text><text class="c" transform="translate(1299 1024)"><tspan x="0" y="20">+</tspan></text><text class="b" transform="translate(1299 1071)"><tspan x="0" y="20">+</tspan></text><text class="b" transform="translate(1299 1106)"><tspan x="0" y="20">+</tspan></text><text class="b" transform="translate(1334 966)"><tspan x="0" y="20">+</tspan></text><text class="b" transform="translate(1334 1001)"><tspan x="0" y="20">+</tspan></text><text class="b" transform="translate(1334 1024)"><tspan x="0" y="20">+</tspan></text><text class="b" transform="translate(1334 1071)"><tspan x="0" y="20">+</tspan></text><text class="b" transform="translate(1334 1106)"><tspan x="0" y="20">+</tspan></text><text class="b" transform="translate(1369 966)"><tspan x="0" y="20">+</tspan></text><text class="b" transform="translate(1369 1001)"><tspan x="0" y="20">+</tspan></text><text class="b" transform="translate(1369 1024)"><tspan x="0" y="20">+</tspan></text><text class="b" transform="translate(1369 1071)"><tspan x="0" y="20">+</tspan></text><text class="b" transform="translate(1369 1106)"><tspan x="0" y="20">+</tspan></text></g></svg>