<svg xmlns="http://www.w3.org/2000/svg" width="49.186" height="51.996" viewBox="0 0 49.186 51.996"><defs><style>.a{fill:#02a9f4;}.a,.b,.c,.d,.e,.f,.g,.h,.i{fill-rule:evenodd;}.b{fill:#ffdf00;}.c{fill:#fec108;}.d{fill:#f5f5f5;}.e{fill:#cfd8dc;}.f{fill:#607d8b;}.g{fill:#37474f;}.h{fill:#fff;}</style></defs><g transform="translate(-0.618 0.002)"><g transform="translate(0.618 -0.002)"><path class="a" d="M16.462,26.273A11.235,11.235,0,0,0,14.079,33.2c0,.13,0,.251.009.381A11.254,11.254,0,0,0,25.345,44.462v7.8a.823.823,0,0,1-.615-.269c-3.189-3.38-7.972-4.134-12.34-5.017-.555-.113-1.118-.243-1.664-.4a12.574,12.574,0,0,1-7.054-4.931c-2.886-4.238-2.548-9.9-.243-14.324C5.136,24.046,7.58,21.073,8.88,17.6A6.808,6.808,0,0,0,6.211,8.967a1.722,1.722,0,0,1-.381-2.5L7.242,4.7A1.709,1.709,0,0,1,9.1,4.123c6.751,2.158,13.276-.832,15.468-1.941A1.747,1.747,0,0,1,25.345,2V21.931a11.239,11.239,0,0,0-8.882,4.342Z" transform="translate(-0.75 -1.132)"/><path class="b" d="M50.673,41.646a12.574,12.574,0,0,1-7.054,4.931c-.546.156-1.109.286-1.664.4-4.368.884-9.151,1.638-12.34,5.017a.823.823,0,0,1-.615.269v-7.8a11.219,11.219,0,0,0,9.4-5.069,11.092,11.092,0,0,0,1.854-5.815c.009-.13.009-.251.009-.381a11.284,11.284,0,0,0-7.418-10.589A11.092,11.092,0,0,0,29,21.931V2a1.747,1.747,0,0,1,.78.182c2.192,1.109,8.718,4.1,15.468,1.941A1.709,1.709,0,0,1,47.1,4.7l1.413,1.768a1.722,1.722,0,0,1-.381,2.5A6.808,6.808,0,0,0,45.465,17.6c1.3,3.475,3.744,6.447,5.451,9.723,2.305,4.42,2.643,10.087-.243,14.324Z" transform="translate(-4.405 -1.132)"/><path class="c" d="M38.935,4.836A24.611,24.611,0,0,1,29.78,2.182,1.747,1.747,0,0,0,29,2V3.022a21.957,21.957,0,0,0,9.935,1.815Z" transform="translate(-4.405 -1.132)"/><path class="c" d="M50.916,27.636c-1.707-3.276-4.151-6.248-5.451-9.723a6.808,6.808,0,0,1,2.669-8.631,1.722,1.722,0,0,0,.381-2.5L47.1,5.01a1.709,1.709,0,0,0-1.854-.572c-.351.113-.7.2-1.051.288a1.726,1.726,0,0,1,.306.284l1.413,1.768a1.722,1.722,0,0,1-.381,2.5,6.808,6.808,0,0,0-2.669,8.631c1.3,3.475,3.744,6.447,5.451,9.723,2.305,4.42,2.643,10.087-.243,14.324a12.574,12.574,0,0,1-7.054,4.931c-.546.156-1.109.286-1.664.4-3.535.716-7.342,1.347-10.356,3.353v1.933a.823.823,0,0,0,.615-.269c3.189-3.38,7.972-4.134,12.34-5.017.555-.113,1.118-.243,1.664-.4a12.574,12.574,0,0,0,7.054-4.931C53.559,37.723,53.221,32.055,50.916,27.636Z" transform="translate(-4.405 -1.447)"/><path class="d" d="M38.531,36.265c0,.13,0,.251-.009.381a11.092,11.092,0,0,1-1.854,5.815,11.259,11.259,0,0,1-20.659-5.815C16,36.517,16,36.4,16,36.265c0-.295.009-.581.035-.867a11.2,11.2,0,0,1,1.239-4.333,11.475,11.475,0,0,1,1.109-1.724,11.2,11.2,0,0,1,5.035-3.666,10.331,10.331,0,0,1,1.248-.373,11.179,11.179,0,0,1,2.6-.3c.295,0,.581.009.867.035a10.946,10.946,0,0,1,2.981.641,11.284,11.284,0,0,1,7.418,10.589Z" transform="translate(-2.671 -4.201)"/><path class="e" d="M37.682,29.343A11.133,11.133,0,0,0,27.5,25.087a11.067,11.067,0,0,1,2.548.593,11.287,11.287,0,0,1,7.418,10.586c0,.129,0,.253-.011.383A11.258,11.258,0,0,1,29.276,47.1a10.888,10.888,0,0,1-1.776.347,11.209,11.209,0,0,0,12.554-10.8c.011-.13.011-.254.011-.383a11.206,11.206,0,0,0-2.383-6.923Z" transform="translate(-4.205 -4.201)"/><g transform="translate(13.329 20.799)"><path class="f" d="M24.465,49.775a11.312,11.312,0,0,1-6.335-4.645c-.017-.035-.043-.061-.061-.1L18.131,45h4.775Z" transform="translate(-16.276 -27.669)"/><path class="f" d="M19.77,34.5l-3.761,2.816C16,37.185,16,37.064,16,36.934a11.235,11.235,0,0,1,2.383-6.924Z" transform="translate(-16 -25.668)"/><path class="f" d="M32.255,25.676l-3.848,2.7-3.848-2.7A11.289,11.289,0,0,1,32.255,25.676Z" transform="translate(-17.142 -25)"/><path class="f" d="M32.629,35.816l-1.646,4.957H25.688L24.05,35.816,28.34,32.8Z" transform="translate(-17.074 -26.041)"/><path class="f" d="M41.42,36.934c0,.13,0,.251-.009.381L37.65,34.5l1.387-4.489A11.235,11.235,0,0,1,41.42,36.934Z" transform="translate(-18.889 -25.668)"/><path class="f" d="M38.937,45.035c-.017.035-.043.061-.061.1a11.265,11.265,0,0,1-6.326,4.645L34.11,45h4.766Z" transform="translate(-18.208 -27.669)"/></g><path class="g" d="M41.49,36.934c0,.13,0,.251-.009.381l-2.721-2.036a9.925,9.925,0,0,0-.581-2.27l.927-3a11.208,11.208,0,0,1,2.383,6.924Z" transform="translate(-5.63 -4.869)"/><path class="g" d="M38.937,45.035c-.017.035-.043.061-.061.1a11.265,11.265,0,0,1-6.326,4.645l.459-1.4a11.333,11.333,0,0,0,3.267-3.25,1.031,1.031,0,0,0,.078-.13h2.522Z" transform="translate(-4.879 -6.869)"/><path class="h" d="M8.2,46.258a.867.867,0,0,1-.583-.225,9.118,9.118,0,0,1-1.4-1.606,11.09,11.09,0,0,1-.8-10.052.867.867,0,0,1,1.625.607,9.368,9.368,0,0,0,.607,8.477,7.336,7.336,0,0,0,1.127,1.3.867.867,0,0,1-.583,1.508Z" transform="translate(-1.149 -5.376)"/><path d="M45.656,23.011a32.93,32.93,0,0,1-3.166-5.852,5.941,5.941,0,0,1,2.346-7.607A2.595,2.595,0,0,0,45.4,5.784L43.991,4.021a2.591,2.591,0,0,0-2.8-.854C35.612,4.95,30.056,3.123,26.379,1.277a2.579,2.579,0,0,0-2.333,0C20.37,3.124,14.814,4.949,9.232,3.166a2.594,2.594,0,0,0-2.8.855L5.022,5.784A2.593,2.593,0,0,0,5.59,9.553,5.941,5.941,0,0,1,7.936,17.16,32.93,32.93,0,0,1,4.77,23.011C4,24.229,3.21,25.487,2.529,26.787-.122,31.865,0,37.836,2.819,42a13.313,13.313,0,0,0,7.539,5.275c.547.155,1.127.3,1.733.418l.867.173c4.042.805,8.223,1.637,11.005,4.593a1.714,1.714,0,0,0,2.494,0c2.786-2.956,6.967-3.788,11.005-4.593l.867-.173c.6-.122,1.184-.26,1.733-.418A13.313,13.313,0,0,0,47.6,42c2.828-4.16,2.941-10.132.29-15.209-.673-1.3-1.468-2.558-2.236-3.777ZM22.812,43.175l-1.27-3.881,1.451-1.9h4.44l1.451,1.9-1.27,3.881A10.456,10.456,0,0,1,22.812,43.175ZM21.267,23.464l3.08,2.164v2.478l-3.575,2.513-2.365-.693-1.1-3.575A10.265,10.265,0,0,1,21.267,23.464Zm5.967,12.2H23.192l-1.241-3.754,3.262-2.293,3.262,2.293ZM16.046,28.155l.663,2.143-1.791,1.344A10.219,10.219,0,0,1,16.046,28.155Zm1.843,3.423,2.357.693L21.6,36.364l-1.451,1.9H16.211a10.356,10.356,0,0,1-1.357-4.4ZM19.949,40l.8,2.46A10.325,10.325,0,0,1,17.473,40Zm10.527,0h2.477a10.331,10.331,0,0,1-3.281,2.46Zm3.738-1.733H30.277l-1.451-1.9,1.354-4.093,2.357-.693,3.033,2.281a10.323,10.323,0,0,1-1.355,4.4Zm-.5-7.965.663-2.144a10.211,10.211,0,0,1,1.127,3.488Zm-1.7-.373-2.365.693L26.08,28.106V25.628l3.08-2.166a10.274,10.274,0,0,1,3.965,2.888Zm-6.807-5.806-1.837-1.291a10.44,10.44,0,0,1,3.674,0ZM13.3,46.164l-.867-.173c-.559-.113-1.1-.243-1.6-.385a11.6,11.6,0,0,1-6.576-4.583C1.776,37.383,1.7,32.11,4.064,27.59c.646-1.237,1.42-2.465,2.166-3.653A34.428,34.428,0,0,0,9.554,17.77,7.635,7.635,0,0,0,6.561,8.121a.859.859,0,0,1-.37-.588.848.848,0,0,1,.181-.666L7.79,5.1a.867.867,0,0,1,.669-.326.813.813,0,0,1,.244.038c5.9,1.887,11.681.148,15.643-1.757V20.972A12.125,12.125,0,0,0,13.081,33.063c0,.154,0,.3.012.411A12.122,12.122,0,0,0,21.9,44.733a11.894,11.894,0,0,0,2.448.433v5.271C21.235,47.75,17.04,46.909,13.3,46.164Zm32.878-5.141A11.6,11.6,0,0,1,39.6,45.606c-.5.142-1.04.272-1.6.385l-.867.173c-3.748.746-7.949,1.589-11.051,4.276V45.164a11.918,11.918,0,0,0,2.443-.429A12.12,12.12,0,0,0,37.33,33.52c.015-.154.015-.3.015-.457A12.084,12.084,0,0,0,26.08,20.972V3.058C30.042,4.964,35.822,6.7,41.723,4.814a.849.849,0,0,1,.913.289l1.413,1.764a.867.867,0,0,1-.19,1.254,7.635,7.635,0,0,0-2.993,9.648,34.428,34.428,0,0,0,3.325,6.167c.75,1.188,1.524,2.416,2.166,3.653,2.363,4.519,2.29,9.791-.184,13.432Z" transform="translate(-0.618 -0.998)"/><path class="i" d="M17.867,20.265a.867.867,0,0,0,.867-.867V15.933h4.333a.867.867,0,1,0,0-1.733H18.733V10.733h4.333a.867.867,0,1,0,0-1.733h-5.2A.867.867,0,0,0,17,9.867V19.4A.867.867,0,0,0,17.867,20.265Z" transform="translate(-2.804 -2.066)"/><path class="i" d="M40.019,15.941a.867.867,0,0,0-.98.736,2.164,2.164,0,0,1-4.306-.311V12.9a2.165,2.165,0,0,1,4.308-.308.867.867,0,1,0,1.714-.25A3.9,3.9,0,0,0,33,12.9v3.466a3.9,3.9,0,0,0,7.756.555.867.867,0,0,0-.737-.98Z" transform="translate(-4.939 -2.066)"/></g></g></svg>