<svg xmlns="http://www.w3.org/2000/svg" width="85.285" height="61.488" viewBox="0 0 85.285 61.488"><defs><style>.a{fill:#ff901d;}.b{fill:#f7bc14;}.c{fill:#ffb125;}.d{fill:#fed130;}</style></defs><g transform="translate(0 -71.432)"><g transform="translate(0 77.136)"><path class="a" d="M35.9,111.8a54.808,54.808,0,0,1,6.481-6.041.365.365,0,0,1,.578.38,29.464,29.464,0,0,1-7.122,13.1A48.353,48.353,0,0,1,35.9,111.8Z" transform="translate(-29.775 -105.677)"/><path class="a" d="M6.064,147.465A54.773,54.773,0,0,1,.7,139.727a.363.363,0,0,0-.678.16c-.284,5.617,1.862,12.189,7.091,14.84A48.572,48.572,0,0,1,6.064,147.465Z" transform="translate(0 -133.902)"/><path class="a" d="M42.714,192.558a52.671,52.671,0,0,1,4.4-7.466.364.364,0,0,1,.661.192,27.632,27.632,0,0,1-2.953,14.241A48.905,48.905,0,0,1,42.714,192.558Z" transform="translate(-35.599 -171.735)"/><path class="a" d="M15.411,243.81a56.821,56.821,0,0,1-7.374-5.643.363.363,0,0,0-.6.359c1.4,5.365,5.386,10.871,11.067,11.843A49.164,49.164,0,0,1,15.411,243.81Z" transform="translate(-6.191 -216.018)"/><path class="a" d="M73.937,268.81a51.837,51.837,0,0,1,2.047-8.362.364.364,0,0,1,.688-.008,27.417,27.417,0,0,1,1.293,14.407A49.12,49.12,0,0,1,73.937,268.81Z" transform="translate(-61.621 -234.461)"/><path class="a" d="M52.1,331.805a57.965,57.965,0,0,1-8.679-3.23.363.363,0,0,0-.464.517c2.9,4.727,8.326,8.82,14.042,8.115A48.834,48.834,0,0,1,52.1,331.805Z" transform="translate(-35.755 -291.417)"/><path class="a" d="M124.9,335.62a50.755,50.755,0,0,1-.505-8.628.364.364,0,0,1,.656-.208,28.427,28.427,0,0,1,5.556,13.489A48.535,48.535,0,0,1,124.9,335.62Z" transform="translate(-103.656 -289.831)"/><path class="a" d="M439.831,111.8a54.807,54.807,0,0,0-6.481-6.041.365.365,0,0,0-.578.38,29.464,29.464,0,0,0,7.122,13.1A48.349,48.349,0,0,0,439.831,111.8Z" transform="translate(-360.673 -105.677)"/><path class="a" d="M470.335,147.465a54.777,54.777,0,0,0,5.361-7.739.363.363,0,0,1,.678.16c.284,5.617-1.862,12.189-7.09,14.84A48.581,48.581,0,0,0,470.335,147.465Z" transform="translate(-391.114 -133.902)"/><path class="a" d="M443.834,192.558a52.671,52.671,0,0,0-4.4-7.466.364.364,0,0,0-.661.192,27.632,27.632,0,0,0,2.953,14.241A48.91,48.91,0,0,0,443.834,192.558Z" transform="translate(-365.663 -171.735)"/><path class="a" d="M441.154,243.81a56.826,56.826,0,0,0,7.374-5.643.363.363,0,0,1,.6.359c-1.4,5.365-5.386,10.871-11.067,11.843A49.17,49.17,0,0,0,441.154,243.81Z" transform="translate(-365.088 -216.018)"/><path class="a" d="M415.627,268.81a51.834,51.834,0,0,0-2.047-8.362.364.364,0,0,0-.688-.008,27.417,27.417,0,0,0-1.293,14.407A49.12,49.12,0,0,0,415.627,268.81Z" transform="translate(-342.658 -234.461)"/><path class="a" d="M389.369,331.805a57.964,57.964,0,0,0,8.679-3.23.363.363,0,0,1,.464.517c-2.9,4.727-8.326,8.82-14.042,8.115A48.836,48.836,0,0,0,389.369,331.805Z" transform="translate(-320.428 -291.417)"/><path class="a" d="M355.925,335.62a50.756,50.756,0,0,0,.505-8.628.364.364,0,0,0-.656-.208,28.427,28.427,0,0,0-5.556,13.489A48.533,48.533,0,0,0,355.925,335.62Z" transform="translate(-291.881 -289.831)"/></g><g transform="translate(4.758 71.431)"><path class="b" d="M57.8,130.222a47.242,47.242,0,0,1-6.268-3.678h0a47.324,47.324,0,0,1-5.54-4.515h0a47.609,47.609,0,0,1-4.757-5.245v0h0a47.929,47.929,0,0,1-3.913-5.864l0,0a47.992,47.992,0,0,1-3.006-6.367v0h0a47.8,47.8,0,0,1-2.045-6.766h0a47.378,47.378,0,0,1-1.021-7.048s0,0,0,0a47.135,47.135,0,0,1,.06-7.223c0-.027,0-.054,0-.081a50.285,50.285,0,0,1,1.912-10.337,1.287,1.287,0,0,0-2.469-.729,52.853,52.853,0,0,0-2.019,10.981c0,.025,0,.05,0,.075a49.882,49.882,0,0,0-.054,7.48h0a49.929,49.929,0,0,0,1.074,7.427s0,0,0,.006a50.323,50.323,0,0,0,2.154,7.133h0a50.566,50.566,0,0,0,3.168,6.712h0v0h0a50.559,50.559,0,0,0,4.121,6.179l0,0a50.2,50.2,0,0,0,5.01,5.527h0a49.879,49.879,0,0,0,5.844,4.765h0a49.791,49.791,0,0,0,6.61,3.882,1.287,1.287,0,1,0,1.139-2.309Z" transform="translate(-28.564 -71.431)"/><path class="b" d="M333.375,83.414c0-.025,0-.049,0-.074a52.839,52.839,0,0,0-2.019-10.981,1.287,1.287,0,1,0-2.469.729A50.286,50.286,0,0,1,330.8,83.424c0,.027,0,.054,0,.082a47.14,47.14,0,0,1,.06,7.224h0a47.4,47.4,0,0,1-1.021,7.048h0a47.724,47.724,0,0,1-2.045,6.766h0v0a47.984,47.984,0,0,1-3.008,6.369h0a47.949,47.949,0,0,1-3.913,5.864v0h0a47.665,47.665,0,0,1-4.757,5.245h0a47.314,47.314,0,0,1-5.54,4.515h0a47.189,47.189,0,0,1-6.268,3.678,1.287,1.287,0,1,0,1.138,2.309,49.783,49.783,0,0,0,6.609-3.881h0a49.916,49.916,0,0,0,5.844-4.766h0a50.227,50.227,0,0,0,5.011-5.528h0a50.573,50.573,0,0,0,4.123-6.181l0,0a50.533,50.533,0,0,0,3.166-6.709h0a50.329,50.329,0,0,0,2.153-7.13h0a49.977,49.977,0,0,0,1.076-7.436.049.049,0,0,0,0-.005A49.849,49.849,0,0,0,333.375,83.414Z" transform="translate(-257.773 -71.435)"/></g><g transform="translate(19.537 86.757)"><path class="c" d="M133.08,185.519a15.835,15.835,0,0,1-15.792-15.851v-4.352a1.88,1.88,0,0,1,1.88-1.88h0l11.395.025a1.287,1.287,0,0,1,0,2.574h0l-10.7-.023v3.657a13.249,13.249,0,0,0,15.326,13.107l.4-.067a1.287,1.287,0,1,1,.444,2.536l-.432.073A15.726,15.726,0,0,1,133.08,185.519Z" transform="translate(-117.288 -163.435)"/><path class="c" d="M279.809,185.52a15.749,15.749,0,0,1-2.52-.2l-.432-.073a1.287,1.287,0,0,1,.444-2.536q.2.035.4.067a13.249,13.249,0,0,0,15.326-13.107v-3.657l-10.7.023h0a1.287,1.287,0,0,1,0-2.574l11.4-.025h0a1.88,1.88,0,0,1,1.879,1.88v4.352a15.835,15.835,0,0,1-15.792,15.851Z" transform="translate(-249.389 -163.436)"/></g><path class="d" d="M205.2,299.4H222.12c-7.011-8.891-6.279-21.7-6.279-21.7h-4.367S212.206,290.51,205.2,299.4Z" transform="translate(-171.015 -171.907)"/><path class="b" d="M245.775,277.7h-4.367a35.292,35.292,0,0,1-.178,4.944,23.35,23.35,0,0,0,4.138,15.914q.307.428.636.846h6.05C245.044,290.511,245.775,277.7,245.775,277.7Z" transform="translate(-200.949 -171.908)"/><path class="d" d="M179.353,141.293v11.229a20.906,20.906,0,0,0,8.506,16.832h0a7.185,7.185,0,0,0,8.523,0h0a20.906,20.906,0,0,0,8.506-16.832V141.293Z" transform="translate(-149.478 -58.224)"/><path class="b" d="M247.48,141.293v11.229a20.906,20.906,0,0,1-8.506,16.832h0a7.183,7.183,0,0,1-1.222.726,7.185,7.185,0,0,0,7.3-.726h0a20.906,20.906,0,0,0,8.506-16.832V141.293Z" transform="translate(-198.149 -58.224)"/><path class="c" d="M197.49,128.867H170.126a.747.747,0,0,1-.747-.747v-3.095a.747.747,0,0,1,.747-.747H197.49a.747.747,0,0,1,.747.747v3.095A.747.747,0,0,1,197.49,128.867Z" transform="translate(-141.165 -44.045)"/><path class="a" d="M311.458,124.28h-5.332v4.588h5.332a.747.747,0,0,0,.747-.747v-3.095A.747.747,0,0,0,311.458,124.28Z" transform="translate(-255.134 -44.045)"/><path class="c" d="M195.432,405.422H166.508a.6.6,0,0,1-.565-.811l2.148-5.82a.6.6,0,0,1,.565-.394h24.628a.6.6,0,0,1,.565.394l2.148,5.82A.6.6,0,0,1,195.432,405.422Z" transform="translate(-138.27 -272.502)"/><path class="a" d="M303.591,404.611l-2.148-5.82a.6.6,0,0,0-.565-.394H295l2.593,7.025h5.43A.6.6,0,0,0,303.591,404.611Z" transform="translate(-245.863 -272.502)"/></g></svg>